<svg width="35" height="35" viewBox="0 0 35 35" fill="none" xmlns="http://www.w3.org/2000/svg">
<g clip-path="url(#clip0_27_3358)">
<path d="M30.4237 8.44702C29.5628 7.61167 28.4812 7.06199 27.306 6.84987C27.0417 5.14608 26.2131 3.57785 24.9151 2.35579C23.3721 0.903152 21.3354 0.10321 19.1803 0.10321C16.63 0.10321 14.2672 1.22553 12.7146 3.14035C12.4283 3.10084 12.1385 3.08101 11.8474 3.08101C10.3907 3.08101 8.97988 3.58544 7.87479 4.50145C6.93676 5.27904 6.26704 6.31004 5.94855 7.45143C4.03839 8.45474 2.83472 10.386 2.83472 12.5245C2.83472 14.9983 4.45073 17.1131 6.71418 17.9333V20.3848H8.99677V18.298H9.77477C9.7734 18.339 9.7719 18.3799 9.7719 18.4211C9.7719 19.9137 10.6816 21.1976 11.9756 21.748C12.0364 22.6751 12.4774 23.4995 13.1439 24.0673V25.6325H15.4265V24.8611C16.2189 24.8323 16.9414 24.5263 17.5001 24.0369C18.0587 24.5263 18.7811 24.8324 19.5736 24.8611V25.6325H21.8562V24.0673C22.5227 23.4995 22.9636 22.6751 23.0245 21.748C24.3186 21.1976 25.2282 19.9137 25.2282 18.4211C25.2282 18.3799 25.2267 18.339 25.2254 18.298H26.0034V20.3847H28.286V17.9333C30.5495 17.1131 32.1655 14.9984 32.1655 12.5245C32.1653 10.9849 31.5468 9.53673 30.4237 8.44702ZM16.3587 21.5272C16.3587 22.1086 15.8858 22.5815 15.3045 22.5815C14.8583 22.5815 14.4769 22.3025 14.3232 21.9101C14.9874 21.7312 15.5947 21.3647 16.0642 20.8462L14.3723 19.3138C14.1166 19.5963 13.7661 19.7518 13.3855 19.7518C12.6516 19.7518 12.0546 19.1548 12.0546 18.4209C12.0546 18.4129 12.0556 18.405 12.0558 18.3971C12.4677 18.5607 12.9161 18.6517 13.3856 18.6517V16.3691C12.6517 16.3691 12.0547 15.7721 12.0547 15.0382C12.0547 14.5838 12.2875 14.1781 12.6414 13.9373C13.0155 14.4349 13.5278 14.83 14.1328 15.057L14.9345 12.9198C14.5253 12.7663 14.2504 12.3693 14.2504 11.932C14.2504 11.3507 14.7234 10.8777 15.3047 10.8777C15.886 10.8777 16.3589 11.3508 16.3589 11.9321V21.5272H16.3587ZM21.6147 19.7519C21.2342 19.7519 20.8837 19.5964 20.6279 19.3139L18.936 20.8462C19.4056 21.3646 20.0129 21.7312 20.6771 21.9102C20.5234 22.3026 20.1419 22.5815 19.6958 22.5815C19.1143 22.5815 18.6414 22.1085 18.6414 21.5272V11.932C18.6414 11.3507 19.1144 10.8777 19.6956 10.8777C20.277 10.8777 20.7499 11.3507 20.7499 11.932C20.7499 12.3694 20.4751 12.7664 20.0658 12.9198L20.8675 15.057C21.4726 14.8301 21.9848 14.435 22.3589 13.9373C22.7129 14.1781 22.9456 14.5838 22.9456 15.0382C22.9456 15.7721 22.3486 16.3691 21.6147 16.3691V18.6517C22.0843 18.6517 22.5327 18.5607 22.9446 18.3971C22.9447 18.4051 22.9458 18.4129 22.9458 18.4209C22.9457 19.1548 22.3487 19.7519 21.6147 19.7519ZM26.2017 16.0154H25.0929C25.1804 15.7043 25.2283 15.3768 25.2283 15.0382C25.2283 13.5593 24.3223 12.2665 23.0247 11.7124C22.911 9.97451 21.4618 8.59515 19.6957 8.59515C18.8555 8.59515 18.0873 8.90803 17.5001 9.42244C16.9128 8.90803 16.1448 8.59515 15.3046 8.59515C13.5384 8.59515 12.0892 9.97451 11.9756 11.7124C10.678 12.2665 9.77196 13.5593 9.77196 15.0382C9.77196 15.3769 9.81982 15.7043 9.90732 16.0154H8.79873C6.7688 16.0154 5.11737 14.4494 5.11737 12.5246C5.11737 11.1193 5.99962 9.85679 7.36489 9.30842L7.96215 9.06854L8.06585 8.43328C8.35173 6.68328 9.97738 5.3636 11.8474 5.3636C12.2069 5.3636 12.5623 5.4107 12.9037 5.50346L13.6999 5.71982L14.155 5.03172C15.2506 3.37489 17.1293 2.38587 19.1803 2.38587C20.7515 2.38587 22.2325 2.96549 23.3505 4.01788C24.4545 5.05721 25.0807 6.44252 25.1137 7.9186L25.1384 9.02288L26.2429 9.03436C28.25 9.05521 29.8828 10.621 29.8828 12.5247C29.8828 14.4494 28.2315 16.0154 26.2017 16.0154Z" fill="#D5D7DF"/>
<path d="M6.71412 22.6674V23.8088H5.70145C5.25355 22.7387 4.19576 21.9849 2.96516 21.9849C1.33014 21.9849 0 23.3151 0 24.95C0 26.585 1.33007 27.9151 2.96509 27.9151C4.19576 27.9151 5.25349 27.1613 5.70138 26.0913H8.99671V22.6674H6.71412V22.6674ZM2.96509 25.6324C2.58877 25.6324 2.28259 25.3263 2.28259 24.9499C2.28259 24.5736 2.5887 24.2674 2.96509 24.2674C3.34147 24.2674 3.64759 24.5736 3.64759 24.9499C3.64759 25.3263 3.34141 25.6324 2.96509 25.6324Z" fill="#D5D7DF"/>
<path d="M32.0349 21.9849C30.8042 21.9849 29.7465 22.7387 29.2986 23.8088H28.2858V22.6674H26.0032V26.0913H29.2985C29.7464 27.1614 30.8042 27.9152 32.0348 27.9152C33.6697 27.9152 34.9999 26.585 34.9999 24.9501C34.9999 23.3151 33.6699 21.9849 32.0349 21.9849ZM32.0349 25.6324C31.6585 25.6324 31.3524 25.3263 31.3524 24.9499C31.3524 24.5736 31.6585 24.2674 32.0349 24.2674C32.4112 24.2674 32.7174 24.5736 32.7174 24.9499C32.7174 25.3263 32.4112 25.6324 32.0349 25.6324Z" fill="#D5D7DF"/>
<path d="M15.4265 29.1953V27.915H13.1439V29.1953C12.0739 29.6434 11.3201 30.701 11.3201 31.9316C11.3201 33.5666 12.6501 34.8967 14.2852 34.8967C15.9202 34.8967 17.2502 33.5666 17.2502 31.9316C17.2503 30.701 16.4965 29.6434 15.4265 29.1953ZM14.2852 32.6143C13.9089 32.6143 13.6027 32.3081 13.6027 31.9318C13.6027 31.5554 13.9088 31.2493 14.2852 31.2493C14.6616 31.2493 14.9677 31.5554 14.9677 31.9318C14.9677 32.3081 14.6615 32.6143 14.2852 32.6143Z" fill="#D5D7DF"/>
<path d="M21.8562 29.1953V27.915H19.5736V29.1953C18.5036 29.6434 17.7498 30.701 17.7498 31.9316C17.7498 33.5666 19.0798 34.8967 20.7148 34.8967C22.3499 34.8967 23.6799 33.5666 23.6799 31.9316C23.68 30.701 22.9262 29.6434 21.8562 29.1953ZM20.7148 32.6143C20.3385 32.6143 20.0323 32.3081 20.0323 31.9318C20.0323 31.5554 20.3385 31.2493 20.7148 31.2493C21.0912 31.2493 21.3973 31.5554 21.3973 31.9318C21.3973 32.3081 21.0912 32.6143 20.7148 32.6143Z" fill="#D5D7DF"/>
</g>
<defs>
<clipPath id="clip0_27_3358">
<rect width="35" height="35" fill="white"/>
</clipPath>
</defs>
</svg>
