<svg width="100" height="78" viewBox="0 0 100 78" fill="none" xmlns="http://www.w3.org/2000/svg">
<path d="M87.8158 -1.95962e-05L56.3552 7.62193L60.155 22.8999L91.6156 15.278L87.8158 -1.95962e-05Z" fill="#87DDD5"/>
<path d="M75.6886 18.3731C78.2514 17.7521 79.5644 14.1744 78.6211 10.3818C77.6779 6.58932 74.8356 4.01822 72.2728 4.63912C69.7099 5.26003 68.397 8.83782 69.3402 12.6303C70.2835 16.4229 73.1257 18.994 75.6886 18.3731Z" fill="white"/>
<path d="M87.3053 0.79401L57.2676 8.0195L57.1584 8.04565L60.5933 22.1947L90.727 14.9206L87.3053 0.79401ZM62.6394 21.1986C61.2221 20.9943 60.9327 19.8349 60.9327 19.8349L59.0812 12.7646C58.5181 10.0417 59.7388 8.4652 60.6153 7.71594L70.6875 5.29294C70.1218 5.80117 69.6635 6.50348 69.346 7.36937C68.7818 8.90823 68.7274 10.7829 69.1928 12.6483C69.6583 14.5137 70.589 16.1507 71.8134 17.2577C72.2257 17.6305 72.6551 17.9269 73.0922 18.1476L70.5546 18.7602L70.6788 19.2579L62.6394 21.1986ZM76.1352 17.4132L74.8937 17.7129C72.8122 17.7389 70.6615 15.5513 69.8949 12.479C69.0494 9.0907 70.2025 5.88972 72.4652 5.34347C74.728 4.79721 77.2568 7.10945 78.1022 10.4977C78.869 13.5702 77.9924 16.4884 76.1352 17.4132ZM80.5316 16.3519L77.9367 16.9783C78.2202 16.5836 78.4612 16.1253 78.6512 15.6072C79.2154 14.0684 79.2698 12.1937 78.8044 10.3283C78.3389 8.46291 77.4082 6.82605 76.1837 5.71887C75.4964 5.09745 74.7615 4.68416 74.0226 4.49071L84.1054 2.06516C85.2403 2.36043 86.9681 3.23321 87.7241 5.81227L89.411 12.9223C89.411 12.9223 89.7135 14.1384 88.4524 14.9675L80.6557 16.8496L80.5316 16.3519Z" fill="#52D5BA"/>
<path d="M67.4483 12.4721L61.5063 13.8978L61.7308 14.8026L67.6727 13.3769L67.4483 12.4721Z" fill="#52D5BA"/>
<path d="M86.443 7.9143L80.5012 9.33999L80.7256 10.2448L86.6674 8.81912L86.443 7.9143Z" fill="#52D5BA"/>
<path d="M53.441 35.5623L51.2853 34.7757L50.7427 32.5301L51.9902 32.246L53.0072 33.6041L53.8393 33.6518L54.6251 34.8903L53.441 35.5623Z" fill="#EACFC1"/>
<path d="M67.5684 31.0035L60.075 36.3815L53.5405 33.6047L52.5815 35.3386L57.5305 38.6538L60.3047 39.6737L67.5684 36.2343V31.0035Z" fill="#3629B7"/>
<path d="M77.6748 19.8534L77.8361 17.5977L75.981 16.1852L75.2031 17.1857L76.0408 18.6571L75.7416 19.4221L76.564 20.637L77.6748 19.8534Z" fill="#EACFC1"/>
<path d="M62.9764 45.4717L62.8264 58.2346L64.2092 74.6645H66.0896L68.3394 59.5065L70.9124 44.3225L62.9764 45.4717Z" fill="#145566"/>
<path d="M66.0779 75.4439L64.0447 76.4441L63.0281 75.4439L64.0447 74.4436H66.0779V75.4439Z" fill="#343434"/>
<path d="M75.8677 45.4718L75.9046 52.8556L74.6365 74.6646H72.7562L69.6108 60.1922L67.9316 44.3226L75.8677 45.4718Z" fill="#145566"/>
<path d="M72.7671 75.444L74.8004 76.4442L75.8169 75.444L74.8004 74.4437H72.7671V75.444Z" fill="#343434"/>
<path d="M77.8232 49.9172C77.8636 51.0887 77.8376 52.6558 77.3361 52.7144C77.2422 52.7253 77.1516 52.6845 77.069 52.6449C76.1969 52.2282 75.5754 51.6392 74.7156 51.2366C73.8147 50.8148 72.7908 50.594 71.7901 50.4415C70.2975 50.2071 68.7804 50.0663 67.2782 50.0531C65.9873 50.0419 64.6446 50.6211 63.4241 50.9397C62.9543 51.0623 62.5722 51.399 62.1818 51.6632C61.6054 52.0533 61.3525 52.2077 61.4313 51.4108C61.5596 50.1103 61.6927 48.81 61.8554 47.5132C62.1798 44.9267 62.6215 42.3462 63.3687 39.8422C63.6541 38.8855 63.9835 37.9423 64.3127 36.9994C64.7135 35.8512 65.1144 34.7029 65.5153 33.5548C66.0135 32.1277 66.8544 31.1225 68.3269 30.6233C69.5993 30.1919 71.18 30.0738 72.4175 30.6778C73.7933 31.3491 74.4477 33.6361 75.1161 34.8582C75.7018 35.9292 76.4402 38.8502 76.6594 40.0047C76.9233 41.3943 77.1671 42.7775 77.3589 44.157C77.5714 45.6848 77.7213 47.2081 77.7647 48.7225C77.7698 48.8898 77.804 49.358 77.8232 49.9172Z" fill="#3629B7"/>
<path d="M71.027 30.88L68.4861 30.9038C68.4861 30.9038 65.7595 40.2757 65.6593 41.891C65.561 43.4766 64.8718 49.9062 64.8718 49.9062C64.8718 49.9062 67.6859 49.9714 70.9281 50.3599C74.0978 51.0271 74.3642 50.6326 74.3642 50.6326C74.3642 50.6326 72.6536 43.8749 72.5968 41.9334C72.5388 39.9476 72.2803 33.3887 72.2803 33.3887L71.027 30.88Z" fill="white"/>
<path d="M69.4859 30.9304C69.5157 30.9559 69.5501 30.9759 69.5898 30.9888C69.6688 31.0143 69.7544 31.005 69.8369 30.9955C70.1731 30.9563 70.5092 30.9172 70.8453 30.8781C70.7344 29.8657 71.3361 29.6366 71.9225 28.9856C72.5168 28.3255 72.3339 27.4355 72.3004 26.6277C72.291 26.4027 72.2798 26.1709 72.183 25.9669C72.0133 25.6087 71.6182 25.4109 71.2345 25.2936C70.2556 24.9944 69.1358 25.068 68.2739 25.6139C68.0445 25.7591 67.8302 25.9417 67.7059 26.1806C67.5143 26.549 67.563 26.9886 67.6164 27.3989C67.6985 28.0298 67.8883 28.6493 68.2509 29.181C68.5888 29.6763 69.233 29.9135 69.3071 30.508C69.3263 30.6617 69.3735 30.8344 69.4859 30.9304Z" fill="#EACFC1"/>
<path d="M67.6445 26.6647C67.7017 26.9193 67.8223 27.1767 67.7595 27.4298C67.3486 27.2926 67.0802 26.8792 66.9346 26.459C66.8687 26.2685 66.8207 26.0667 66.8373 25.8652C66.8539 25.6637 66.9429 25.4611 67.1046 25.3472C67.3303 25.1883 67.7352 25.2507 67.7997 25.5388C67.8649 25.8292 67.5586 26.282 67.6445 26.6647Z" fill="#343434"/>
<path d="M65.4635 24.429C65.4733 24.1242 65.5913 23.8519 65.8683 23.6678C66.107 23.5092 66.3823 23.3776 66.5273 23.1255C66.64 22.9297 66.6564 22.6875 66.768 22.4913C66.97 22.1359 67.4085 22.0313 67.7899 21.9108C68.7441 21.6094 69.2577 21.2615 70.2684 21.6473C70.9868 21.9217 71.9153 21.9584 72.5822 22.3586C72.8607 22.5257 73.0976 22.7941 73.2921 23.0932C73.9658 24.1292 74.1276 25.586 73.6887 26.6665C73.5905 26.9084 73.4656 27.1308 73.3323 27.3438C73.0654 27.7696 72.7797 28.2936 72.3074 28.502C72.2777 28.3014 72.1258 28.1907 72.0781 27.9934C72.0439 27.8515 72.0554 27.7027 72.0628 27.5566C72.0919 26.9884 72.269 26.0901 71.6922 25.8084C70.9627 25.4521 69.5944 25.7735 68.8917 26.0751C68.2701 26.3419 67.2209 26.6891 66.5582 26.4032C65.9429 26.138 65.4426 25.0803 65.4635 24.429Z" fill="#343434"/>
<path d="M71.8413 30.5505L78.2918 28.6806L75.9042 20.7487L77.8717 19.3608L82.6212 28.5431L81.3077 31.7227L75.1446 34.8516L71.8413 30.5505Z" fill="#3629B7"/>
<path d="M49.6809 39.3624C53.7364 38.5161 56.3316 34.5954 55.4773 30.6053C54.6231 26.6151 50.6429 24.0665 46.5873 24.9128C42.5318 25.7591 39.9367 29.6798 40.7909 33.6699C41.6452 37.6601 45.6253 40.2087 49.6809 39.3624Z" fill="#FB6B18"/>
<path opacity="0.1" d="M50.6646 24.4848C46.3658 23.1139 41.751 25.4302 40.3572 29.6582C38.9633 33.8864 41.3184 38.4253 45.6171 39.7962C49.916 41.1671 54.5307 38.8508 55.9246 34.6228C57.3184 30.3946 54.9635 25.8557 50.6646 24.4848ZM46.0411 38.5104C42.4643 37.3698 40.505 33.5933 41.6646 30.0754C42.8243 26.5574 46.6639 24.6303 50.2407 25.7709C53.8174 26.9115 55.7768 30.688 54.6171 34.2059C53.4575 37.7237 49.6178 39.651 46.0411 38.5104Z" fill="#272525"/>
<path d="M50.9235 23.6996C46.1837 22.1881 41.0956 24.742 39.5587 29.4039C38.0219 34.0658 40.6185 39.0702 45.3582 40.5818C50.098 42.0933 55.1861 39.5394 56.723 34.8777C58.2599 30.2157 55.6633 25.2112 50.9235 23.6996ZM45.8258 39.1638C41.8821 37.9061 39.7217 33.7423 41.0003 29.8635C42.279 25.9847 46.5124 23.8599 50.4561 25.1174C54.3997 26.375 56.5602 30.5389 55.2815 34.4177C54.0029 38.2966 49.7694 40.4214 45.8258 39.1638Z" fill="#FFAF2A"/>
<path d="M45.1136 33.5038C45.0463 33.4158 45.0726 33.2855 45.0903 33.1655C45.1353 32.8602 45.3907 32.7005 45.6925 32.7607C46.1453 32.851 46.4818 33.3215 46.8151 33.6351C47.0887 33.8929 47.4217 34.0854 47.8137 34.2132C48.2336 34.3498 48.6041 34.3589 48.9253 34.2404C49.2464 34.1218 49.4621 33.8989 49.5723 33.5716C49.684 33.2397 49.6614 32.9704 49.5047 32.7636C49.3478 32.5569 49.0219 32.3731 48.5268 32.2119L48.2 32.1055C47.392 31.8425 46.8318 31.476 46.5197 31.0061C46.2075 30.5361 46.1577 29.9855 46.3701 29.3543C46.5778 28.7371 46.946 28.3252 47.4748 28.1186C48.0034 27.912 48.6422 27.9305 49.3909 28.1742C49.6959 28.2735 49.9899 28.425 50.2731 28.6288C50.8617 29.0525 51.7763 29.9317 51.3283 30.5008C50.8175 31.1498 50.023 29.7103 49.6749 29.4066C49.4711 29.2289 49.2088 29.0876 48.8881 28.9832C48.5157 28.862 48.183 28.8615 47.89 28.9813C47.597 29.1013 47.4 29.3109 47.2994 29.61C47.2002 29.9046 47.2462 30.1529 47.4375 30.3553C47.6288 30.5577 48.1073 30.7939 48.8735 31.064C49.6896 31.3556 50.2346 31.721 50.5087 32.1605C50.7828 32.5999 50.8089 33.1492 50.587 33.8084C50.3747 34.4397 49.9947 34.8763 49.4475 35.1184C48.9001 35.3604 48.27 35.3654 47.557 35.1333C47.3313 35.0598 47.088 34.9534 46.8274 34.814C46.3421 34.5549 45.5775 34.1111 45.1136 33.5038Z" fill="white"/>
<path d="M46.7631 36.7208L46.7542 36.7179C46.5081 36.6377 46.385 36.3459 46.4792 36.066L49.3869 27.4245C49.4811 27.1445 49.7569 26.9825 50.003 27.0626L50.0119 27.0656C50.258 27.1457 50.3811 27.4375 50.287 27.7175L47.3792 36.3589C47.2851 36.6389 47.0093 36.8009 46.7631 36.7208Z" fill="white"/>
<path d="M20.9824 24.9551L21.2578 22.6849L23.0628 21.6604L23.584 22.8832L22.7221 24.2747V25.4141L20.9824 24.9551Z" fill="#EACFC1"/>
<path d="M34.8125 75.5625L33.1974 74.0948C32.7288 73.8615 32.2331 73.6986 31.8315 73.7036C31.5398 73.7072 31.2977 73.7993 31.1518 74.0171C31.0115 74.2263 30.9831 74.5016 31.0786 74.7249C31.1135 74.8064 31.1631 74.8795 31.219 74.9484H31.2188C31.2188 74.9484 31.2195 74.949 31.2196 74.9493C31.2678 75.0085 31.3203 75.0647 31.3727 75.1201C31.4061 75.1553 31.4429 75.1932 31.482 75.2326C31.8162 75.589 32.3762 76.1695 32.5984 76.3007C32.9246 76.4932 33.6419 77.0066 34.4897 76.429C34.4866 76.4262 34.4831 76.4237 34.4799 76.4209C34.7882 76.2155 34.8791 75.878 34.8125 75.5625Z" fill="#343434"/>
<path d="M33.5452 62.784L33.4149 64.6253L32.775 73.589L33.4149 74.6318C33.4149 74.6318 33.5452 75.4656 32.567 75.4014C32.2761 75.3824 31.2453 74.0935 31.2453 74.0935L31.3943 73.5029L30.6689 66.7724L30.6755 64.8175L30.3286 62.6471L33.5452 62.784Z" fill="#EACFC1"/>
<path d="M23.307 73.2855C23.0065 73.1925 22.7264 73.2068 22.5019 73.3819C22.2863 73.5501 22.1627 73.8234 22.1843 74.0842C22.1991 74.262 22.2755 74.4265 22.3509 74.5872C22.7409 75.4189 23.8348 77.2993 25.0898 76.9546C25.6172 76.8098 25.8169 76.2801 25.7098 75.8121C25.5485 75.1071 24.3124 73.5967 23.307 73.2855Z" fill="#343434"/>
<path d="M29.6331 61.7091L29.4145 64.3603L24.1233 73.7306C24.1233 73.7306 24.8839 75.0375 24.4014 75.151C23.9191 75.2646 22.5044 74.8687 22.5015 73.393C23.0578 71.6058 25.2445 65.537 25.2445 65.537L26.2685 63.971L26.2535 61.028L29.6331 61.7091Z" fill="#EACFC1"/>
<path d="M23.6544 52.8345C23.6127 52.0528 23.8668 50.0137 24.128 49.2831C25.0798 46.6188 25.2634 45.3057 25.2634 43.1371C25.2634 40.9686 24.2852 34.0927 24.2852 34.0927L27.5783 32.2459L31.7577 32.1987L33.9481 33.1334C33.9481 33.1334 34.4988 41.5833 34.6348 44.3715C34.7318 46.3613 34.8723 48.0846 35.0572 50.39C35.0572 50.3902 35.5757 55.6486 34.7746 61.2856C34.7746 61.2856 34.5957 63.1575 34.5156 63.3214C34.5049 63.3771 34.499 63.4069 34.499 63.4069C34.499 63.4069 34.4668 63.4069 34.4664 63.407L25.4071 63.4069V60.1945C25.1056 59.1633 24.8192 58.1276 24.5447 57.0893C24.1958 55.7695 23.732 54.2849 23.6544 52.8345Z" fill="#0890FE"/>
<path d="M25.5709 32.6927L24.0244 33.8365C24.0244 33.8365 25.2009 41.7556 25.2635 43.1375C25.3263 44.5194 23.5156 50.0417 23.5156 50.0417L31.0156 51.0038C31.0156 51.0038 32.1187 45.1062 32.4362 42.1764C32.7537 39.2466 28.216 32.1044 28.216 32.1044L25.5709 32.6927Z" fill="#3629B7"/>
<path d="M33.0897 32.5528L34.6203 33.2672C34.6203 33.2672 34.4051 42.0705 34.7975 44.3064C35.0368 45.6694 35.9682 50.083 35.9682 50.083L33.5463 50.8982C33.5463 50.8982 32.0553 45.3774 31.759 42.4477C31.4626 39.5178 31.7854 32.2321 31.7854 32.2321L33.0897 32.5528Z" fill="#3629B7"/>
<path d="M32.7925 29.3272C32.9913 30.0836 32.535 30.8307 32.1358 31.4687C31.9727 31.7294 31.72 32.0919 31.9304 32.3895C32.166 32.7225 32.7511 32.6558 33.0087 32.4067C33.1904 32.2309 33.2798 31.9925 33.3573 31.76C33.7047 30.7183 34.1899 29.2592 34.095 28.1641C34.0189 27.2861 32.9242 25.7268 31.7964 26.2847C31.5917 26.386 31.4604 26.5763 31.3481 26.7633C31.281 26.875 31.2163 26.9921 31.2029 27.1196C31.1497 27.6279 31.6482 27.7589 31.9757 28.0321C32.3797 28.3689 32.6656 28.8442 32.7925 29.3272Z" fill="#343434"/>
<path d="M30.9112 32.0446C31.6645 31.9504 32.2941 31.4326 32.631 30.8092C32.9679 30.1857 33.0483 29.4685 33.0351 28.769C32.9911 26.4412 29.8529 26.3119 28.6326 27.9848C27.5692 29.4426 28.7212 32.3182 30.9112 32.0446Z" fill="#EACFC1"/>
<path d="M28.7685 29.0853C28.7426 29.3672 28.5968 29.6662 28.5566 29.9557C28.4827 30.4888 28.604 31.1805 28.4056 31.6676C27.8553 31.5934 27.1861 31.2549 26.7783 30.8835C26.3619 30.5041 26.4369 29.9401 26.3437 29.3812C26.2576 28.8643 26.1478 28.345 26.1779 27.8221C26.3423 24.9593 29.2469 23.3936 31.806 24.685C32.7742 25.1736 33.1976 26.4153 32.4855 27.2313C31.7195 28.1088 30.1632 27.7283 29.2459 28.3795C29.0423 28.524 28.8859 28.7834 28.7685 29.0853Z" fill="#343434"/>
<path d="M30.9738 31.8045C30.9357 31.9779 30.8974 32.1512 30.8593 32.3247C30.8418 32.4042 30.8484 32.6317 30.7788 32.6862C30.7426 32.7146 30.6888 32.7104 30.6412 32.7047C30.5052 32.6882 29.2872 32.5357 29.3004 32.4595C29.3359 32.2551 29.3758 32.055 29.4405 31.8598C29.4929 31.7022 29.5129 31.4055 29.6096 31.2859C29.8163 31.4251 30.0303 31.5112 30.2739 31.5791C30.5091 31.6447 30.7454 31.7064 30.9828 31.7643C30.9798 31.7777 30.9768 31.7911 30.9738 31.8045Z" fill="#EACFC1"/>
<path d="M27.8828 32.3651L21.9069 32.792L23.2455 24.222L21.0643 24.2335L17.8638 33.2174L18.9752 36.0477L25.9401 36.6809L27.8828 32.3651Z" fill="#3629B7"/>
<path d="M40.3358 76.3861H37.7207C37.1538 76.3861 36.6943 75.9348 36.6943 75.3779L34.4468 67.8847C34.4468 67.3279 34.9063 66.8765 35.4732 66.8765L41.2002 68.5746C41.7671 68.5746 42.2266 69.026 42.2266 69.5828L41.3622 75.3779C41.3622 75.9346 40.9027 76.3861 40.3358 76.3861Z" fill="#FAB994"/>
<path d="M58.3804 76.3861H60.9954C61.5623 76.3861 62.0218 75.9348 62.0218 75.3779L64.2693 67.8847C64.2693 67.3279 63.8098 66.8765 63.2429 66.8765L57.516 68.5746C56.949 68.5746 56.4895 69.026 56.4895 69.5828L57.3539 75.3779C57.3539 75.9346 57.8134 76.3861 58.3804 76.3861Z" fill="#FAB994"/>
<path d="M50.7186 44.0119V46.6959H48.1917V44.0119C37.6396 44.5479 32.1667 51.8085 32.1667 60.1112C32.1667 68.7395 39.907 75.734 49.4552 75.734C59.0033 75.734 66.7436 68.7394 66.7436 60.1112C66.7436 51.8082 61.2807 44.5475 50.7186 44.0119Z" fill="#FACCB2"/>
<path d="M34.7063 42.3743C34.6417 42.3683 34.5776 42.3982 34.5427 42.4526C34.508 42.5068 31.1103 47.9306 35.2949 53.4753C35.3287 53.52 35.3808 53.544 35.434 53.544C35.4636 53.544 35.4934 53.5365 35.5207 53.5211L43.3909 49.0333C43.4676 48.9895 43.4981 48.896 43.4619 48.8168C43.4349 48.7585 40.7188 42.9736 34.7063 42.3743Z" fill="#FAB994"/>
<path d="M63.5682 42.4523C63.5333 42.3979 63.4684 42.3683 63.4046 42.3741C57.392 42.9731 54.6759 48.7582 54.649 48.8166C54.6127 48.8958 54.6433 48.9894 54.72 49.0331L62.5903 53.521C62.6174 53.5364 62.6474 53.5438 62.6769 53.5438C62.7301 53.5438 62.7823 53.5197 62.816 53.4752C67.0006 47.9302 63.603 42.5065 63.5682 42.4523Z" fill="#FAB994"/>
<path d="M45.1131 55.7802C45.7369 55.7802 46.2426 55.2833 46.2426 54.6705C46.2426 54.0576 45.7369 53.5608 45.1131 53.5608C44.4893 53.5608 43.9836 54.0576 43.9836 54.6705C43.9836 55.2833 44.4893 55.7802 45.1131 55.7802Z" fill="#3B455A"/>
<path d="M53.7977 55.7799C54.4214 55.7799 54.9271 55.2831 54.9271 54.6702C54.9271 54.0573 54.4214 53.5605 53.7977 53.5605C53.1739 53.5605 52.6682 54.0573 52.6682 54.6702C52.6682 55.2831 53.1739 55.7799 53.7977 55.7799Z" fill="#3B455A"/>
<path d="M49.4551 67.2424C53.1978 67.2424 56.2318 65.0144 56.2318 62.2659C56.2318 59.5175 53.1978 57.2894 49.4551 57.2894C45.7125 57.2894 42.6785 59.5175 42.6785 62.2659C42.6785 65.0144 45.7125 67.2424 49.4551 67.2424Z" fill="#FAB994"/>
<path d="M36.3564 70.3066C39.5269 73.6297 44.2191 75.7336 49.4554 75.7336C59.0035 75.7336 66.7438 68.7389 66.7438 60.1108C66.7438 58.2834 66.4789 56.5067 65.9536 54.8409C59.8602 80.2079 36.3564 70.3066 36.3564 70.3066Z" fill="#FAB994"/>
<path d="M46.8646 63.0214C47.2056 63.0214 47.4821 62.5636 47.4821 61.9988C47.4821 61.434 47.2056 60.9762 46.8646 60.9762C46.5235 60.9762 46.2471 61.434 46.2471 61.9988C46.2471 62.5636 46.5235 63.0214 46.8646 63.0214Z" fill="white"/>
<path d="M52.0465 63.0217C52.3876 63.0217 52.664 62.5639 52.664 61.9991C52.664 61.4343 52.3876 60.9764 52.0465 60.9764C51.7054 60.9764 51.429 61.4343 51.429 61.9991C51.429 62.5639 51.7054 63.0217 52.0465 63.0217Z" fill="white"/>
<path d="M33.9702 32.9209L35.5008 33.6352L37.7779 40.8742L42.7525 44.3227L41.5857 45.5622L35.766 42.9951L34.3425 39.9343L33.9702 32.9209Z" fill="#3629B7"/>
<path d="M42.6093 44.1924L43.6233 44.5692L42.7293 45.9865L41.4135 46.0141L40.821 45.079L42.6093 44.1924Z" fill="#3629B7"/>
<path d="M9.87585 76.355L9.78984 77.2359L7.97694 78L7.19971 77.0606L8.1491 76.238L9.96187 75.474L9.87585 76.355Z" fill="#343434"/>
<path d="M11.3897 58.5047L9.99379 76.0771L8.24706 76.3104L6.80145 61.3334L5.60596 56.5818L11.3897 58.5047Z" fill="#B5D6CA"/>
<path d="M15.5671 53.8931L16.6143 74.774L15.0209 75.0688L11.701 59.2691L9.87476 54.6942L15.5671 53.8931Z" fill="#B5D6CA"/>
<path d="M15.1621 75.7606L17.0552 76.3303L17.7468 75.2821L16.7153 74.5529L14.9922 74.872L15.1621 75.7606Z" fill="#343434"/>
<path d="M13.3137 31.341C12.0235 30.2905 8.91301 30.8945 7.27642 30.8945C7.43391 30.8945 5.72533 39.8797 5.67136 40.6635C5.47416 43.5204 4.57407 46.4104 3.332 49.0264C2.80827 50.1292 2.18412 51.1932 1.81179 52.3539C1.19477 54.2775 1.19633 56.5438 1.37082 58.5348C3.12715 59.0096 4.7723 59.8988 6.57871 60.1292C8.06468 60.3189 9.56556 60.05 11.0581 59.9201C12.8233 59.7665 14.6009 59.8074 16.3676 59.6738C18.1345 59.5402 19.9205 59.2209 21.4843 58.4013C20.7849 57.0702 20.2464 55.6638 19.7982 54.2334C19.3532 52.813 18.7807 51.2356 18.6182 49.7546C18.4715 48.4167 18.4475 47.0552 18.2495 45.6987C18.0193 44.1207 17.7425 42.5476 17.3583 40.9982C16.9187 39.2262 16.3388 37.4881 15.6268 35.8041C15.0848 34.5221 14.438 32.4222 13.4196 31.4353C13.3858 31.4024 13.3505 31.371 13.3137 31.341Z" fill="#3629B7"/>
<path d="M3.69229 50.4112C3.62613 50.8649 3.9947 52.0244 4.42671 52.2765C5.42396 52.8586 5.06266 51.3957 5.05319 50.8623C5.24377 50.9155 5.42643 50.9728 5.61999 50.9885C5.79746 51.003 5.27205 49.4386 5.09691 49.293C4.67683 48.9435 4.37845 49.123 3.86821 49.1768C3.81969 49.5883 3.75262 50.0001 3.69229 50.4112Z" fill="#3629B7"/>
<path d="M5.22191 33.9132L0 42.8809L3.71402 50.7143L4.97334 49.0768L3.64707 42.0657L7.85641 37.7995L7.27676 30.8939L5.22191 33.9132Z" fill="#0890FE"/>
<path d="M18.6261 48.7149C18.6923 49.1685 18.3237 50.3281 17.8917 50.5802C16.8945 51.1622 17.2558 49.6993 17.2653 49.1659C17.0747 49.2193 16.892 49.2765 16.6984 49.2922C16.521 49.3066 17.0465 47.7423 17.2215 47.5966C17.6416 47.2471 17.94 47.4266 18.4502 47.4806C18.4989 47.892 18.566 48.3036 18.6261 48.7149Z" fill="#0890FE"/>
<path d="M15.566 32.9192L19.6376 38.6024L18.6045 49.0184L17.3453 47.381L16.6624 39.6723L14.4623 36.1037L12.553 30.8939L15.566 32.9192Z" fill="#0890FE"/>
<path d="M10.5735 26.484C11.3908 26.6303 12.3986 27.3172 12.5955 28.1652C12.6904 28.5737 12.5552 28.9497 12.6744 29.3828C12.906 30.2376 11.8545 31.4969 12.8955 32.0911C13.4305 32.3965 14.0991 32.2976 14.7079 32.1894C14.7817 32.1762 14.8589 32.1617 14.9172 32.1154C15.0134 32.0392 15.0295 31.8966 14.993 31.7805C14.9566 31.6644 14.8785 31.5665 14.8101 31.4654C14.0947 30.4074 14.2681 28.89 13.9899 27.6853C13.7123 26.4828 13.0554 25.2852 11.8444 24.7918C11.2406 25.1765 10.8014 25.8034 10.6511 26.4953L10.5735 26.484Z" fill="#343434"/>
<path d="M11.5988 31.6613C12.3851 31.3305 12.9061 30.543 13.0774 29.7189C13.2486 28.8947 13.1129 28.0367 12.8813 27.2268C12.1109 24.532 8.67228 25.3039 7.87053 27.6084C7.17192 29.6167 9.31239 32.623 11.5988 31.6613Z" fill="#CC937A"/>
<path d="M7.5955 33.1433C7.98145 32.9072 8.36002 32.6602 8.58368 32.2193C8.94524 31.5068 8.79268 30.3997 8.83588 29.6269C8.88102 28.8121 8.95653 27.9244 9.5245 27.3297C9.89541 26.9413 10.3517 26.8346 10.867 26.783C11.2199 26.7477 11.2449 26.878 11.5275 26.6663C11.744 26.5041 11.9025 26.0607 11.9338 25.8067C11.9865 25.378 11.7759 24.9485 11.4645 24.6442C10.9854 24.1759 10.4478 23.9687 9.79059 24.0095C7.4838 24.1528 5.87186 25.6406 5.41481 27.9076C5.19517 28.9973 5.52884 30.1619 5.28482 31.2133C5.13407 31.8624 4.75901 32.318 4.65055 33.0048C4.36916 34.7872 3.58207 37.1025 3.81351 38.9016C3.82207 38.9682 3.83647 39.0416 3.89122 39.0817C4.00266 39.1633 4.14835 39.0402 4.22969 38.9294C4.70452 38.2825 5.17947 37.6357 5.6543 36.9888C5.84072 36.7347 6.02962 36.4764 6.13768 36.1817C6.40675 35.4479 6.15662 34.5489 6.62081 33.9163C6.87405 33.5711 7.23795 33.3619 7.5955 33.1433Z" fill="#343434"/>
<path d="M27.4466 22.6167C31.3977 21.7428 33.8857 17.8829 33.0035 13.9953C32.1214 10.1077 28.2033 7.66459 24.2521 8.53846C20.3009 9.41233 17.813 13.2723 18.6951 17.1599C19.5773 21.0474 23.4954 23.4905 27.4466 22.6167Z" fill="#FB6B18"/>
<path opacity="0.1" d="M25.1099 7.75277C20.7147 8.15867 17.4861 11.9922 17.8988 16.3153C18.3115 20.6382 22.2091 23.8137 26.6044 23.4078C30.9997 23.0019 34.2282 19.1684 33.8155 14.8453C33.4028 10.5223 29.5051 7.34688 25.1099 7.75277ZM26.4788 22.093C22.8218 22.4308 19.5789 19.7887 19.2356 16.1917C18.8922 12.5948 21.5784 9.40519 25.2355 9.06756C28.8925 8.72981 32.1355 11.3719 32.4787 14.9688C32.822 18.5656 30.1359 21.7552 26.4788 22.093Z" fill="#272525"/>
<path d="M25.0335 6.94937C20.1873 7.39686 16.6277 11.6236 17.0826 16.3901C17.5376 21.1565 21.835 24.6577 26.6812 24.2102C31.5272 23.7627 35.087 19.536 34.632 14.7695C34.177 10.003 29.8796 6.50187 25.0335 6.94937ZM26.5429 22.7605C22.5108 23.1329 18.9352 20.2198 18.5567 16.254C18.1781 12.2882 21.1399 8.77137 25.172 8.39903C29.2041 8.02669 32.7797 10.9397 33.1583 14.9056C33.5367 18.8714 30.575 22.3882 26.5429 22.7605Z" fill="#FFAF2A"/>
<path d="M23.6778 17.9553C23.5828 17.9019 23.5551 17.775 23.5237 17.6607C23.4439 17.3698 23.6103 17.1292 23.9047 17.0685C24.3463 16.9774 24.8333 17.2711 25.2555 17.4258C25.6023 17.5529 25.9767 17.5989 26.3787 17.5642C26.809 17.5271 27.145 17.3943 27.3865 17.1657C27.6279 16.9373 27.7336 16.6552 27.7038 16.3197C27.6735 15.9794 27.5472 15.7464 27.3254 15.6207C27.1034 15.4951 26.7387 15.4541 26.2312 15.4979L25.8962 15.5268C25.068 15.5983 24.4214 15.4828 23.9566 15.1799C23.4918 14.8771 23.2305 14.4022 23.1727 13.7552C23.1163 13.1226 23.2846 12.6131 23.6777 12.2265C24.0706 11.8401 24.6509 11.6136 25.4183 11.5474C25.731 11.5204 26.0542 11.5444 26.3883 11.6195C27.083 11.7756 28.2492 12.2163 28.0712 12.8973C27.8683 13.6738 26.5893 12.6848 26.1576 12.5448C25.9049 12.4629 25.6141 12.436 25.2853 12.4644C24.9036 12.4974 24.6049 12.6234 24.3892 12.8424C24.1735 13.0615 24.0793 13.3245 24.1067 13.6311C24.1337 13.933 24.2726 14.1384 24.5238 14.247C24.7748 14.3557 25.2971 14.3856 26.0906 14.3363C26.9372 14.2875 27.5699 14.4078 27.9886 14.6977C28.4072 14.9876 28.6467 15.4704 28.707 16.1462C28.7648 16.7933 28.5957 17.3294 28.2 17.7549C27.8042 18.1803 27.2411 18.4245 26.5101 18.4875C26.2787 18.5074 26.0187 18.5046 25.73 18.4789C25.1931 18.4308 24.3327 18.3236 23.6778 17.9553Z" fill="white"/>
<path d="M26.4228 20.2133L26.4136 20.214C26.1614 20.2359 25.9361 20.0209 25.9105 19.7339L25.12 10.876C25.0945 10.589 25.2782 10.3388 25.5304 10.317L25.5396 10.3162C25.7918 10.2944 26.017 10.5094 26.0427 10.7964L26.8332 19.6543C26.8587 19.9412 26.675 20.1916 26.4228 20.2133Z" fill="white"/>
<path d="M17.1363 54.0935L5.75651 51.8262C5.41038 51.7571 5.19075 51.4048 5.26599 51.0391L8.51996 35.2401C8.5952 34.8744 8.93692 34.6338 9.28318 34.7029L20.663 36.9702C21.0091 37.0391 21.2287 37.3915 21.1535 37.7572L17.8995 53.5563C17.8242 53.922 17.4824 54.1624 17.1363 54.0935Z" fill="#0890FE"/>
<path d="M11.8141 45.3646L8.83411 44.7709C8.64872 44.7338 8.53106 44.5451 8.5714 44.3493L9.20204 41.2874C9.24238 41.0915 9.42544 40.9626 9.61082 40.9996L12.5908 41.5933C12.7762 41.6303 12.8939 41.8191 12.8535 42.0149L12.2229 45.0768C12.1825 45.2726 11.9996 45.4015 11.8141 45.3646Z" fill="#3629B7"/>
<path d="M17.3082 46.4594L14.3283 45.8656C14.1427 45.8286 14.0252 45.6399 14.0655 45.444L14.6962 42.3821C14.7365 42.1863 14.9196 42.0574 15.1051 42.0944L18.0851 42.6881C18.2706 42.7251 18.3881 42.9139 18.3478 43.1097L17.7172 46.1716C17.6767 46.3675 17.4936 46.4964 17.3082 46.4594Z" fill="#3629B7"/>
<path d="M10.7828 50.371L7.80286 49.7773C7.61747 49.7403 7.4998 49.5516 7.54015 49.3557L8.17079 46.2938C8.21113 46.098 8.39419 45.9691 8.57958 46.0061L11.5596 46.5998C11.745 46.6368 11.8626 46.8255 11.8223 47.0214L11.1916 50.0833C11.1514 50.2792 10.9684 50.4079 10.7828 50.371Z" fill="#3629B7"/>
<path d="M16.2772 51.4647L13.2973 50.871C13.1117 50.8341 12.9942 50.6452 13.0345 50.4494L13.6652 47.3875C13.7055 47.1916 13.8886 47.0627 14.074 47.0997L17.054 47.6935C17.2395 47.7305 17.357 47.9192 17.3167 48.115L16.686 51.1769C16.6457 51.3727 16.4626 51.5016 16.2772 51.4647Z" fill="#3629B7"/>
<path d="M10.9181 43.0746L11.7644 43.2432C11.8172 43.2536 11.8574 43.2806 11.8849 43.3236C11.9124 43.3667 11.9208 43.4145 11.91 43.467C11.8991 43.5196 11.8732 43.5589 11.8322 43.5849C11.7912 43.6109 11.7436 43.6184 11.6891 43.6076L10.8429 43.439L10.6527 44.3627C10.6405 44.4218 10.6152 44.4663 10.5767 44.4962C10.5381 44.5262 10.4925 44.5359 10.4397 44.5253C10.393 44.516 10.3563 44.4882 10.3294 44.4418C10.3025 44.3955 10.2945 44.346 10.3054 44.2934L10.4956 43.3697L9.65401 43.2019C9.59952 43.1911 9.55827 43.1658 9.53011 43.126C9.50196 43.0862 9.49314 43.0401 9.50404 42.9875C9.51416 42.9382 9.54179 42.8984 9.58681 42.868C9.63182 42.8378 9.67931 42.8275 9.729 42.8374L10.5706 43.0051L10.7602 42.0838C10.7724 42.0247 10.7985 41.9803 10.8386 41.9507C10.8787 41.9211 10.9244 41.9114 10.9756 41.9216C11.0284 41.9321 11.0667 41.9586 11.0903 42.0009C11.1139 42.0432 11.1197 42.0939 11.1075 42.153L10.9181 43.0746Z" fill="#EEEEEE"/>
<path d="M15.1995 44.3671C15.1683 44.3609 15.146 44.3458 15.1324 44.3217C15.1188 44.2976 15.1156 44.2676 15.123 44.2313L15.1768 43.9702C15.1831 43.939 15.1971 43.9162 15.2188 43.9016C15.2403 43.8872 15.2667 43.883 15.2978 43.8891L17.2304 44.2743C17.2661 44.2815 17.2923 44.296 17.3088 44.3181C17.3252 44.3402 17.3303 44.3669 17.3238 44.398L17.2701 44.6592C17.264 44.6886 17.2469 44.7131 17.2186 44.7323C17.1905 44.7514 17.1615 44.7581 17.1319 44.7522L15.1995 44.3671Z" fill="#EEEEEE"/>
<path d="M14.2827 48.6654C14.2516 48.6592 14.2293 48.6441 14.2156 48.62C14.202 48.5959 14.1989 48.5657 14.2063 48.5296L14.26 48.2685C14.2664 48.2373 14.2804 48.2145 14.302 48.1999C14.3236 48.1855 14.3499 48.1813 14.381 48.1874L16.3137 48.5726C16.3493 48.5798 16.3755 48.5943 16.392 48.6164C16.4085 48.6385 16.4136 48.6652 16.4071 48.6963L16.3534 48.9575C16.3473 48.9871 16.3301 49.0115 16.3019 49.0306C16.2737 49.0498 16.2448 49.0564 16.2152 49.0505L14.2827 48.6654Z" fill="#EEEEEE"/>
<path d="M14.0852 49.6226C14.0541 49.6163 14.0317 49.6012 14.0181 49.5771C14.0045 49.553 14.0014 49.523 14.0088 49.4867L14.0625 49.2256C14.0689 49.1945 14.0829 49.1716 14.1045 49.1571C14.1261 49.1426 14.1524 49.1384 14.1835 49.1446L16.1162 49.5298C16.1519 49.5369 16.1781 49.5515 16.1945 49.5735C16.211 49.5956 16.2161 49.6223 16.2096 49.6534L16.1559 49.9146C16.1498 49.9442 16.1327 49.9686 16.1044 49.9877C16.0762 50.0069 16.0473 50.0135 16.0177 50.0076L14.0852 49.6226Z" fill="#EEEEEE"/>
<path d="M8.68188 48.1409C8.65074 48.1346 8.62843 48.1196 8.61481 48.0955C8.60118 48.0713 8.59807 48.0412 8.60547 48.0051L8.65918 47.7439C8.66553 47.7128 8.67967 47.69 8.70121 47.6754C8.72275 47.6609 8.74908 47.6568 8.78022 47.6629L10.7129 48.0481C10.7485 48.0553 10.7748 48.0698 10.7912 48.0919C10.8077 48.114 10.8128 48.1406 10.8063 48.1718L10.7526 48.4329C10.7465 48.4625 10.7293 48.4869 10.7011 48.5061C10.6729 48.5252 10.644 48.5318 10.6144 48.526L8.68188 48.1409Z" fill="#EEEEEE"/>
<path d="M10.0819 47.5334C10.0518 47.6798 9.91499 47.7761 9.77644 47.7484C9.63789 47.7209 9.54994 47.5797 9.58017 47.4333C9.61026 47.2869 9.74712 47.1905 9.88567 47.2182C10.0241 47.2459 10.112 47.387 10.0819 47.5334Z" fill="#EEEEEE"/>
<path d="M9.82905 48.761C9.79895 48.9074 9.66208 49.0038 9.52352 48.9761C9.38497 48.9485 9.29701 48.8074 9.32724 48.661C9.35734 48.5146 9.49421 48.4182 9.63276 48.4459C9.77132 48.4735 9.85915 48.6147 9.82905 48.761Z" fill="#EEEEEE"/>
<path d="M9.56573 36.6853L9.07812 39.0532L19.333 41.096L19.8206 38.7281L9.56573 36.6853Z" fill="white"/>
<path d="M90.3817 74.0975C90.5584 73.9061 90.7648 73.8016 90.9978 73.8376C91.2216 73.8722 91.4231 74.0216 91.5153 74.2212C91.5782 74.3574 91.5916 74.5092 91.604 74.6577C91.6685 75.4264 91.6628 77.2514 90.6221 77.5142C90.1848 77.6245 89.8229 77.3188 89.7062 76.9324C89.5303 76.3502 89.7908 74.7376 90.3817 74.0975Z" fill="#343434"/>
<path d="M90.012 62.5054L90.0665 67.1925C90.0031 69.2744 90.3336 71.3679 90.2703 73.4499C90.2556 73.9286 90.1289 74.4335 90.2515 74.9081C90.3713 75.3723 90.7548 75.4543 91.1484 75.2193C91.6758 74.9044 91.5908 74.169 91.6787 73.6325C91.92 72.1582 92.2031 70.6908 92.455 69.2182C92.5785 68.4963 92.3238 67.4845 92.3792 66.754C92.3792 66.7535 93.1491 62.826 93.1491 62.826L90.012 62.5054Z" fill="#EACFC1"/>
<path d="M95.4561 54.9311L93.3821 63.9928L92.9415 72.5502L89.6528 72.4776L88.7585 48.541L95.1339 48.655L95.4561 54.9311Z" fill="#3B455A"/>
<path d="M85.6777 73.9252C85.8622 73.7438 86.0724 73.6513 86.303 73.7008C86.5246 73.7484 86.7188 73.9095 86.8021 74.1148C86.8589 74.2547 86.8655 74.4074 86.8715 74.5568C86.9025 75.3298 86.8173 77.1559 85.7687 77.3585C85.328 77.4435 84.9807 77.1166 84.8811 76.7231C84.7313 76.1303 85.061 74.5316 85.6777 73.9252Z" fill="#343434"/>
<path d="M87.4114 63.1615L87.1323 67.841C87.1095 69.1415 86.9333 70.4318 86.7964 71.7235C86.6693 72.9233 86.8671 74.1729 86.2296 75.2643C86.0297 75.6065 85.6256 75.8342 85.3433 75.4185C85.1257 75.0981 85.2549 74.5636 85.2132 74.2002C85.0428 72.7165 84.8304 71.2377 84.6492 69.7553C84.5603 69.0285 84.8633 68.0295 84.8429 67.2972L84.2622 63.3381L87.4114 63.1615Z" fill="#EACFC1"/>
<path d="M83.2495 54.3769L82.9817 63.1733L84.3853 72.0685L87.7306 72.1669L87.583 62.5401L89.3532 54.5565L89.9474 49.3308L84.6393 48.715L83.2495 54.3769Z" fill="#3B455A"/>
<path d="M87.4483 30.7131L93.167 30.5788L96.4826 36.6438L95.3041 42.3247L95.0944 49.123L86.9369 49.2325L84.2527 48.8039L84.9654 41.5401L84.5568 31.8368L87.4483 30.7131Z" fill="#0890FE"/>
<path d="M93.7186 45.1662L93.7496 46.1152L92.047 46.7249L91.0658 45.9934L91.0652 44.8887L92.0125 44.8367L92.0422 44.5937L92.3524 44.3974L93.7186 45.1662Z" fill="#EACFC1"/>
<path d="M76.3633 39.329L75.9372 40.1808L74.1432 39.9315L73.6267 38.8321L74.1539 37.8568L75.015 38.249L75.1573 38.0484L75.5249 38.0185L76.3633 39.329Z" fill="#EACFC1"/>
<path d="M93.3567 30.9975L99.6902 38.1637L99.9996 41.3026L93.7525 46.1531L92.6316 44.558L96.6719 40.3151L92.758 36.5466L93.3567 30.9975Z" fill="#0890FE"/>
<path d="M87.2417 34.3877L84.2629 40.2447L81.1182 41.1742L74.9946 40.3479L75.7835 38.3695L81.3063 37.9267L84.5566 31.8363L87.2417 34.3877Z" fill="#0890FE"/>
<path d="M87.8068 26.0006C88.6689 23.5354 91.9779 24.4592 92.66 26.6543C93.105 28.0861 91.9807 29.9444 90.4722 30.3556C90.4656 30.4119 90.4605 30.4646 90.4604 30.5092C90.4593 30.7391 90.4305 30.9657 90.3959 31.1954C90.3829 31.281 89.0629 31.0315 88.9156 31.0029C88.8641 30.993 88.8066 30.9792 88.7789 30.9367C88.7257 30.8552 88.8122 30.615 88.822 30.5246C88.8334 30.4176 88.8448 30.3107 88.8562 30.2038C88.1122 29.8465 87.6425 29.0857 87.5115 28.3112C87.3798 27.533 87.5477 26.7415 87.8068 26.0006Z" fill="#EACFC1"/>
<path d="M89.9655 23.7724C90.1428 23.9497 90.2126 24.1967 90.2637 24.4341C90.2942 24.5757 90.3206 24.7223 90.2898 24.8627C90.1668 25.4223 89.6026 25.3931 89.1662 25.5734C88.6279 25.7958 88.1639 26.2054 87.8625 26.677C87.3906 27.4156 87.6029 28.3659 87.7942 29.1806C87.8617 29.4677 87.9974 29.8946 87.771 30.1507C87.541 30.4108 87.0093 30.3706 86.7338 30.2368C86.4821 30.1144 86.2753 29.8882 85.9989 29.8426C85.7063 29.7944 85.3109 29.921 85.1748 29.657C85.1369 29.5835 85.1334 29.4938 85.0855 29.4265C84.9239 29.1991 84.5218 29.4654 84.294 29.3052C84.1539 29.2065 84.1548 28.9965 84.2023 28.8303C84.2496 28.664 84.3294 28.4956 84.2965 28.3265C84.2681 28.1812 84.1616 28.0663 84.0957 27.934C83.9655 27.6728 84.0105 27.3326 84.2042 27.1121C84.5645 26.702 85.2617 26.7799 85.6477 26.3942C85.8487 26.1933 85.9267 25.9035 86.0017 25.6292C86.0767 25.3548 86.1666 25.0657 86.3816 24.8798C86.6471 24.6502 87.0305 24.6893 87.2926 24.4168C87.4466 24.2568 87.5492 24.0486 87.7219 23.9094C87.9495 23.7259 88.3948 23.5848 88.678 23.4911C89.1273 23.3426 89.6297 23.4371 89.9655 23.7724Z" fill="#343434"/>
<path d="M92.0586 27.7058C92.074 28.5172 91.6642 29.3943 92.0442 30.1086C92.4276 30.8294 93.3837 30.9593 94.1985 30.997C94.3325 31.0032 96.0521 31.1492 96.0595 31.1172C96.1882 30.552 96.3215 29.9757 96.6218 29.4794C96.9221 28.9831 97.4242 28.5719 97.9993 28.5367C97.8334 28.5084 97.7497 28.3086 97.7689 28.1401C97.7881 27.9717 97.8768 27.8197 97.9281 27.6579C98.0541 27.2602 97.9315 26.7963 97.6266 26.5168C97.0183 25.9592 95.9154 26.1908 95.3939 25.5502C95.0706 25.153 95.1091 24.577 94.9395 24.0922C94.612 23.1547 93.5683 22.9584 92.7883 22.5351C91.9649 22.0881 91.1896 21.8432 90.2392 21.999C89.0611 22.1921 88.1854 23.3719 88.6397 24.482C89.2224 25.9059 91.5523 25.783 91.9885 27.2287C92.0355 27.3837 92.0556 27.5435 92.0586 27.7058Z" fill="#343434"/>
<path d="M91.4758 30.6808L89.7018 33.1478L88.8677 33.0807L87.4778 30.5787L91.4758 30.6808Z" fill="#EDEEEE"/>
<path d="M87.9344 47.9772C90.8613 45.0984 90.8613 40.4311 87.9344 37.5523C85.0075 34.6736 80.2621 34.6736 77.3352 37.5523C74.4084 40.4311 74.4084 45.0984 77.3352 47.9772C80.2621 50.8559 85.0075 50.8559 87.9344 47.9772Z" fill="#FB6B18"/>
<path opacity="0.1" d="M81.8718 34.7658C77.3795 35.1806 74.0796 39.0988 74.5014 43.5172C74.9232 47.9356 78.9069 51.1813 83.3992 50.7663C87.8914 50.3515 91.1913 46.4333 90.7696 42.0149C90.3478 37.5965 86.3642 34.351 81.8718 34.7658ZM83.271 49.4226C79.5332 49.7677 76.2187 47.0673 75.8678 43.391C75.5168 39.7148 78.2624 36.4547 82.0001 36.1095C85.7379 35.7644 89.0524 38.4648 89.4033 42.1411C89.7543 45.8174 87.0087 49.0774 83.271 49.4226Z" fill="#272525"/>
<path d="M81.7934 33.9445C76.8403 34.4019 73.2019 38.7219 73.667 43.5936C74.1321 48.4652 78.5243 52.0438 83.4774 51.5863C88.4305 51.1289 92.0689 46.8088 91.6038 41.9371C91.1388 37.0654 86.7466 33.487 81.7934 33.9445ZM83.3362 50.1046C79.215 50.4853 75.5605 47.5078 75.1736 43.4544C74.7866 39.401 77.8138 35.8065 81.9349 35.426C86.056 35.0455 89.7106 38.0228 90.0976 42.0761C90.4846 46.1295 87.4573 49.7241 83.3362 50.1046Z" fill="#FFAF2A"/>
<path d="M80.4078 45.1939C80.3108 45.1393 80.2824 45.0097 80.2503 44.8928C80.1688 44.5954 80.3388 44.3496 80.6398 44.2876C81.0913 44.1944 81.5889 44.4948 82.0204 44.6527C82.3749 44.7826 82.7576 44.8296 83.1684 44.7942C83.6082 44.7563 83.9517 44.6205 84.1985 44.3869C84.4453 44.1534 84.5534 43.8651 84.5229 43.5221C84.4919 43.1744 84.3629 42.9362 84.136 42.8077C83.9091 42.6792 83.5364 42.6373 83.0177 42.6821L82.6753 42.7117C81.8288 42.7849 81.1678 42.6667 80.6928 42.3571C80.2176 42.0477 79.9508 41.5623 79.8917 40.901C79.834 40.2544 80.006 39.7336 80.4078 39.3385C80.8095 38.9436 81.4026 38.7121 82.187 38.6444C82.5065 38.6168 82.837 38.6413 83.1786 38.718C83.8886 38.8776 85.0805 39.3279 84.8986 40.024C84.6911 40.8176 83.3839 39.8068 82.9428 39.6638C82.6845 39.5801 82.3873 39.5526 82.0512 39.5816C81.6611 39.6153 81.3558 39.7441 81.1354 39.968C80.9148 40.1919 80.8187 40.4606 80.8466 40.774C80.8741 41.0827 81.0161 41.2924 81.2729 41.4036C81.5295 41.5147 82.0634 41.5452 82.8743 41.4948C83.7397 41.4449 84.3863 41.5679 84.8143 41.8642C85.2421 42.1605 85.4869 42.6539 85.5486 43.3446C85.6076 44.006 85.4348 44.554 85.0303 44.9888C84.6258 45.4235 84.0501 45.6732 83.3031 45.7376C83.0666 45.7581 82.8008 45.7551 82.5059 45.7287C81.9565 45.6798 81.0771 45.5702 80.4078 45.1939Z" fill="white"/>
<path d="M83.2136 47.5005L83.2041 47.5012C82.9464 47.5234 82.7161 47.3037 82.6899 47.0105L81.8821 37.9571C81.8559 37.6638 82.0437 37.408 82.3015 37.3857L82.311 37.3849C82.5687 37.3627 82.799 37.5825 82.8252 37.8757L83.633 46.9291C83.6592 47.2224 83.4715 47.4783 83.2136 47.5005Z" fill="white"/>
</svg>
