<svg width="407" height="257" viewBox="0 0 407 257" fill="none" xmlns="http://www.w3.org/2000/svg">
<g clip-path="url(#clip0_606_2987)">
<rect width="407" height="257" fill="white"/>
<g clip-path="url(#clip1_606_2987)">
<path d="M251.227 221.301L196.207 221.011C189.589 220.977 184.25 214.786 184.275 207.183L184.859 48.7137C184.889 41.1052 190.278 34.966 196.901 35.0001L251.921 35.2906C258.539 35.3248 263.878 41.5152 263.853 49.1181L263.268 207.588C263.244 215.196 257.85 221.336 251.227 221.301Z" fill="#3629B7"/>
<path d="M251.841 40.763L241.173 40.7061C239.741 40.7004 238.576 42.0843 238.571 43.8042L238.561 46.0252C238.556 47.7451 237.391 49.129 235.958 49.1233L215.163 49.0151C213.73 49.0094 212.58 47.6084 212.585 45.8886L212.595 43.6675C212.6 41.9476 211.445 40.5523 210.017 40.5409L206.264 40.5181L196.93 40.4669C192.295 40.4441 188.517 44.7439 188.497 50.0687L187.927 204.745C187.907 210.07 191.645 214.404 196.28 214.427L251.192 214.717C255.827 214.74 259.604 210.44 259.624 205.115L260.194 50.4389C260.219 45.1197 256.476 40.7858 251.841 40.763Z" fill="white"/>
<path d="M243.357 62.0107H205.625C204.14 62.0107 202.936 64.1304 202.936 66.7452C202.936 69.36 204.14 71.4797 205.625 71.4797H243.357C244.842 71.4797 246.046 69.36 246.046 66.7452C246.046 64.1304 244.842 62.0107 243.357 62.0107Z" fill="#5655B9"/>
<path d="M242.007 64.3782H208.322C207.579 64.3782 206.977 65.438 206.977 66.7454C206.977 68.0528 207.579 69.1127 208.322 69.1127H242.007C242.75 69.1127 243.352 68.0528 243.352 66.7454C243.352 65.438 242.75 64.3782 242.007 64.3782Z" fill="#3629B7"/>
<path d="M236.542 66.7457H234.463H211.184C208.348 66.7457 206.047 69.2841 206.014 72.4286C206.014 72.4517 206.011 72.4737 206.011 72.4968C206.011 72.52 206.014 72.542 206.014 72.5652V165.651H226.002C227.132 166.881 228.677 167.642 230.384 167.642C232.091 167.642 233.635 166.881 234.766 165.651C236.427 163.843 236.542 161.821 236.542 159.399L236.652 72.4968C236.652 69.3205 238.968 66.7457 241.825 66.7457H236.542Z" fill="#FFAF2A"/>
<path d="M233.787 89.6534H208.702V90.6609H233.787V89.6534Z" fill="#D2CFCA"/>
<path d="M233.787 95.5502H208.702V96.5576H233.787V95.5502Z" fill="#D2CFCA"/>
<path d="M233.787 101.446H208.702V102.453H233.787V101.446Z" fill="#D2CFCA"/>
<path d="M233.787 107.338H208.702V108.345H233.787V107.338Z" fill="#D2CFCA"/>
<path d="M233.787 113.233H208.702V114.24H233.787V113.233Z" fill="#D2CFCA"/>
<path d="M233.787 119.128H208.702V120.135H233.787V119.128Z" fill="#D2CFCA"/>
<path d="M233.787 125.804H208.702V126.811H233.787V125.804Z" fill="#D2CFCA"/>
<path d="M233.787 132.477H208.702V133.484H233.787V132.477Z" fill="#D2CFCA"/>
<path d="M233.787 139.151H208.702V140.158H233.787V139.151Z" fill="#D2CFCA"/>
<path d="M233.787 83.18H208.702V84.1872H233.787V83.18Z" fill="#D2CFCA"/>
<g filter="url(#filter0_d_606_2987)">
<path d="M225.462 159.193C225.462 158.381 225.547 157.598 225.694 156.853H225.462L202.937 161.808L204.104 164.082C205.323 166.459 207.27 167.865 209.343 167.865H231.578C228.201 167.865 225.462 163.983 225.462 159.193Z" fill="#3629B7"/>
</g>
</g>
<g clip-path="url(#clip2_606_2987)">
<path d="M159.474 171.084H136.391C138.301 180.061 137.841 177.87 137.909 178.32C138.266 180.661 141.71 183.118 147.79 183.118C153.87 183.118 156.712 180.784 157.748 178.842C157.906 178.546 158.06 177.734 159.474 171.084Z" fill="#31343F"/>
<path d="M150.099 186.212C149.047 186.589 147.338 186.588 146.281 186.21C145.224 185.832 145.218 185.221 146.27 184.844C147.323 184.467 149.032 184.468 150.089 184.846C151.146 185.224 151.151 185.836 150.099 186.212Z" fill="#31343F"/>
<path d="M150.878 185.488H145.486L144.924 179.645H151.44L150.878 185.488Z" fill="#31343F"/>
<path d="M164.023 204.884C161.978 204.884 159.914 204.548 157.959 203.872C150.436 201.274 146.264 194.567 146.514 185.47L149.852 185.505C149.627 193.694 153.265 199.885 159.584 202.067C162.572 203.099 165.893 203.052 168.697 201.937C173.374 200.078 175.767 195.834 175.097 190.581C174.708 187.527 173.537 184.652 172.405 181.871C169.493 174.721 166.742 167.967 180.631 162.463L182.43 164.204C170.566 168.906 172.695 174.132 175.641 181.366C176.807 184.229 178.013 187.191 178.425 190.419C179.193 196.444 176.23 201.4 170.499 203.677C168.475 204.481 166.26 204.884 164.023 204.884Z" fill="#31343F"/>
<path d="M148.697 183.025C147.703 183.088 146.896 183.107 145.782 182.964C145.795 183.097 145.972 185.406 146.08 185.52C146.466 185.935 147.904 186.089 148.477 185.83C148.873 185.689 148.697 183.025 148.697 183.025Z" fill="#3F434F"/>
<path d="M153.024 174.186H138.438C139.644 179.859 139.354 178.473 139.397 178.758C139.622 180.237 141.799 181.789 145.64 181.789C149.482 181.789 151.279 180.314 151.933 179.087C152.033 178.901 152.13 178.388 153.024 174.186Z" fill="#3F434F"/>
<path d="M159.862 171.149C153.303 173.494 142.636 173.482 136.036 171.123C129.436 168.763 129.404 164.95 135.962 162.605C142.52 160.26 153.187 160.272 159.787 162.631C166.387 164.991 166.42 168.805 159.862 171.149Z" fill="#3F434F"/>
<path d="M159.863 170.657C153.304 173.002 142.637 172.99 136.037 170.63C132.89 169.505 131.24 168.049 131.082 166.58C130.886 168.212 132.538 169.871 136.037 171.122C142.637 173.482 153.304 173.494 159.863 171.149C163.293 169.922 164.917 168.294 164.743 166.682C164.57 168.129 162.944 169.556 159.863 170.657Z" fill="#7C8189"/>
<path opacity="0.1" d="M135.66 170.981L159.381 162.5C152.757 160.278 142.391 160.306 135.962 162.605C129.533 164.903 129.443 168.613 135.66 170.981Z" fill="white"/>
<path d="M142.919 167.694C141.777 168.102 139.921 168.1 138.773 167.689C137.625 167.278 137.619 166.615 138.76 166.207C139.902 165.799 141.757 165.801 142.906 166.212C144.054 166.622 144.06 167.286 142.919 167.694Z" fill="#343742"/>
<path d="M143.269 166.724V157.283C143.269 157.28 143.269 157.276 143.269 157.273V157.261H143.266C143.228 156.669 142.343 155.755 140.83 155.755C139.318 155.755 138.426 156.667 138.408 157.261L138.407 157.267C138.407 157.271 138.407 157.274 138.407 157.278V166.801H138.41C138.393 167.033 138.627 167.269 139.126 167.447C140.085 167.79 141.634 167.791 142.587 167.45C143.141 167.252 143.225 167.04 143.269 166.724Z" fill="#B0B7C9"/>
<path d="M143.268 166.724V157.283C143.268 157.279 143.268 157.272 143.268 157.272V157.261H143.265C143.227 156.668 142.342 155.755 140.829 155.755C140.67 155.755 140.518 155.767 140.372 155.786C141.603 155.947 142.317 156.732 142.35 157.261H142.354V157.273C142.354 157.277 142.354 157.284 142.354 157.284V166.409C142.335 166.744 142.225 167.172 141.672 167.369C140.884 167.651 139.82 167.62 138.76 167.275C138.861 167.335 138.978 167.394 139.124 167.446C140.084 167.79 141.633 167.791 142.586 167.45C143.14 167.252 143.291 167.012 143.268 166.724Z" fill="#868B9B"/>
<path d="M138.881 156.861C138.784 156.642 139.652 155.942 140.247 155.942C140.698 155.96 141.066 156.485 141.007 156.86C140.93 157.359 139.115 157.39 138.881 156.861Z" fill="#DAE2F2"/>
<path d="M139 157.356C139 157.356 138.999 166.851 138.999 167.085C139.675 167.467 141.066 167.355 141.066 167.355V157.574C140.344 157.622 139.575 157.548 139 157.356Z" fill="#DAE2F2"/>
<path d="M141.271 156.92C141.271 156.111 142.093 156.741 142.093 157.037C142.093 157.378 141.271 157.246 141.271 156.92Z" fill="#DAE2F2"/>
<path d="M157.064 167.694C155.922 168.102 154.067 168.1 152.918 167.689C151.77 167.278 151.764 166.615 152.905 166.207C154.047 165.799 155.903 165.801 157.051 166.212C158.199 166.622 158.204 167.286 157.064 167.694Z" fill="#343742"/>
<path d="M157.415 166.724V157.283C157.415 157.28 157.415 157.276 157.415 157.273V157.261H157.412C157.374 156.669 156.489 155.755 154.976 155.755C153.464 155.755 152.572 156.667 152.554 157.261L152.553 157.267C152.553 157.271 152.553 157.274 152.553 157.278V166.801H152.556C152.539 167.033 152.773 167.269 153.272 167.447C154.231 167.79 155.78 167.791 156.733 167.45C157.287 167.252 157.371 167.04 157.415 166.724Z" fill="#B0B7C9"/>
<path d="M157.415 166.724V157.283C157.415 157.279 157.415 157.272 157.415 157.272V157.261H157.412C157.374 156.668 156.489 155.755 154.976 155.755C154.817 155.755 154.665 155.767 154.519 155.786C155.751 155.947 156.465 156.732 156.498 157.261H156.502V157.273C156.502 157.277 156.502 157.284 156.502 157.284V166.409C156.483 166.744 156.373 167.172 155.82 167.369C155.032 167.651 153.968 167.62 152.907 167.275C153.009 167.335 153.126 167.394 153.272 167.446C154.232 167.79 155.781 167.791 156.734 167.45C157.287 167.252 157.438 167.012 157.415 166.724Z" fill="#868B9B"/>
<path d="M153.026 156.861C152.929 156.642 153.797 155.942 154.392 155.942C154.843 155.96 155.211 156.485 155.152 156.86C155.075 157.359 153.26 157.39 153.026 156.861Z" fill="#DAE2F2"/>
<path d="M153.146 157.356C153.146 157.356 153.145 166.851 153.145 167.085C153.821 167.467 155.211 167.355 155.211 167.355V157.574C154.491 157.622 153.721 157.548 153.146 157.356Z" fill="#DAE2F2"/>
<path d="M155.416 156.92C155.416 156.111 156.238 156.741 156.238 157.037C156.238 157.378 155.416 157.246 155.416 156.92Z" fill="#DAE2F2"/>
<path d="M164.735 167.223C164.532 168.653 162.909 170.06 159.862 171.149C153.304 173.494 142.637 173.483 136.037 171.123C132.834 169.978 131.183 168.49 131.076 166.995V169.83C131.068 169.935 131.068 170.04 131.076 170.144V170.375H131.103C131.356 171.792 132.999 173.186 136.036 174.272C142.636 176.632 153.303 176.644 159.861 174.299C162.907 173.21 164.529 171.804 164.734 170.375L164.735 170.372C164.765 170.163 164.766 169.955 164.735 169.746V167.223Z" fill="#343742"/>
<path d="M153.873 172.519C147.886 173.314 140.872 172.851 136.037 171.122C135.939 171.087 135.847 171.051 135.752 171.016V174.165C135.847 174.201 135.939 174.237 136.037 174.272C140.872 176.001 147.887 176.464 153.873 175.669V172.519Z" fill="#454A56"/>
<path d="M164.735 170.077V170.08C164.53 171.509 162.908 172.915 159.861 174.004C153.302 176.349 142.636 176.337 136.036 173.977C132.998 172.891 131.355 171.497 131.103 170.08H131.075C131.076 170.102 131.074 170.123 131.075 170.145V170.375H131.103C131.355 171.792 132.998 173.186 136.036 174.272C142.636 176.632 153.302 176.644 159.861 174.299C162.907 173.211 164.529 171.804 164.734 170.375L164.735 170.372C164.757 170.219 164.757 170.065 164.747 169.912C164.743 169.967 164.743 170.022 164.735 170.077Z" fill="#2C2F38"/>
<path d="M147.038 187.99C147.038 187.99 147.992 188.138 148.628 188.138C148.628 188.138 148.31 190.992 149.82 194.29C152.085 199.236 156.775 202.46 156.655 202.608C156.218 202.804 147.714 197.981 147.038 187.99Z" fill="#454A56"/>
<path d="M171.158 177.065C171.158 177.065 169.688 173.521 170.841 170.396C171.993 167.271 175.49 165.278 175.649 165.302C175.808 165.327 172.47 167.861 171.715 170.568C170.618 174.499 171.669 177.023 171.158 177.065Z" fill="#4E5460"/>
</g>
<g clip-path="url(#clip3_606_2987)">
<path d="M175.368 93.7022L172.978 92.6887C172.979 92.6898 172.979 92.6908 172.981 92.6919C172.281 92.3151 171.328 92.3072 170.276 92.7633L135.818 107.691C133.673 108.62 131.934 111.114 131.934 113.26V141.846C131.934 143.055 132.486 143.896 133.351 144.233L136.177 145.413C136.177 145.413 135.584 144.674 135.132 144.282C135.355 144.225 135.583 144.151 135.818 144.049L170.276 129.121C172.422 128.192 174.16 125.699 174.16 123.553V94.9665C174.16 94.3923 174.032 93.9043 173.809 93.5101C174.616 93.9933 175.368 93.7022 175.368 93.7022Z" fill="#E0CBB0"/>
<path d="M131.931 113.259V141.846C131.931 143.054 132.483 143.895 133.348 144.233L136.174 145.413C136.174 145.413 135.581 144.673 135.129 144.282C135.352 144.225 135.581 144.15 135.815 144.049L155.972 135.316V123.17L131.962 112.769C131.943 112.934 131.931 113.098 131.931 113.259Z" fill="#C6AE95"/>
<path d="M174.157 94.966C174.157 94.3918 174.03 93.9039 173.806 93.5096C174.614 93.9922 175.365 93.7017 175.365 93.7017L172.976 92.6882C172.976 92.6893 172.977 92.6904 172.979 92.6914C172.279 92.3146 171.326 92.3067 170.274 92.7629L135.816 107.691C135.666 107.755 135.519 107.829 135.374 107.909L162.442 119.635L174.158 112.426L174.157 94.966Z" fill="#F2DCC4"/>
<path d="M172.831 130.217L138.373 145.144C136.228 146.074 134.489 145.087 134.489 142.941V114.355C134.489 112.209 136.227 109.716 138.373 108.786L172.831 93.858C174.976 92.9287 176.715 93.9151 176.715 96.0611V124.648C176.715 126.794 174.976 129.287 172.831 130.217Z" fill="#F7EED7"/>
<path d="M171.836 129.914L139.714 143.83C137.473 144.8 135.65 144.021 135.65 142.091V114.433C135.65 112.504 137.473 110.145 139.714 109.174L171.836 95.2581C174.077 94.2875 175.899 95.0676 175.899 96.9966V124.655C175.899 126.584 174.077 128.943 171.836 129.914ZM139.714 109.483C137.671 110.368 136.009 112.519 136.009 114.278V141.936C136.009 143.695 137.671 144.406 139.714 143.521L171.836 129.605C173.879 128.72 175.541 126.569 175.541 124.81V97.1522C175.541 95.3931 173.879 94.6823 171.836 95.5672L139.714 109.483Z" fill="#C6AD89"/>
<g opacity="0.6">
<path opacity="0.6" d="M137.184 143.751L174.535 95.4097C173.859 95.0816 172.9 95.1064 171.836 95.5674L139.713 109.483C137.671 110.368 136.009 112.519 136.009 114.278V141.936C136.009 142.853 136.463 143.482 137.184 143.751Z" fill="#F9ECC7"/>
</g>
<path d="M163.984 123.146C168.575 117.253 168.621 110.864 164.088 108.876C159.554 106.887 152.157 110.051 147.566 115.944C142.976 121.836 142.929 128.225 147.463 130.214C151.997 132.202 159.393 129.038 163.984 123.146Z" fill="#CEBBA1"/>
<path d="M155.45 121.73L149.043 127.684L154.56 130.074C154.959 129.937 155.365 129.78 155.774 129.602C158.3 128.508 160.635 126.804 162.546 124.804L155.45 121.73Z" fill="#E0CBB0"/>
<path opacity="0.4" d="M155.775 109.485C155.148 109.757 154.532 110.068 153.931 110.41V114.893L165.941 120.095C166.905 118.215 167.458 116.286 167.458 114.483C167.458 108.927 162.228 106.69 155.775 109.485Z" fill="#C6AD89"/>
<path opacity="0.4" d="M167.408 113.603C166.911 109.004 162.476 107.086 156.895 109.048L167.408 113.603Z" fill="#C6AD89"/>
<path d="M152.56 128.077C158.409 125.542 163.152 119.405 163.152 114.368C163.152 110.972 160.994 108.946 157.797 108.761C157.139 108.947 156.464 109.185 155.774 109.484C149.322 112.279 144.092 119.049 144.092 124.604C144.092 126.361 144.616 127.785 145.536 128.823C147.405 129.442 149.865 129.245 152.56 128.077Z" fill="#F2DDC2"/>
<path d="M167.086 126.847L144.463 136.648C142.885 137.332 141.601 136.782 141.601 135.424V115.944C141.601 114.586 142.885 112.924 144.463 112.241L167.086 102.44C168.663 101.756 169.947 102.305 169.947 103.664V123.143C169.947 124.502 168.663 126.163 167.086 126.847ZM144.463 112.458C143.024 113.081 141.853 114.596 141.853 115.835V135.314C141.853 136.553 143.024 137.053 144.463 136.43L167.086 126.629C168.524 126.006 169.695 124.49 169.695 123.252V103.773C169.695 102.534 168.524 102.033 167.086 102.657L144.463 112.458Z" fill="#C6AD89"/>
<path d="M154.077 119.01C154.077 119.679 153.447 120.494 152.67 120.831C151.893 121.168 151.264 120.898 151.264 120.229C151.264 119.56 151.894 118.745 152.67 118.409C153.447 118.072 154.077 118.341 154.077 119.01Z" fill="#5D6D89"/>
<path opacity="0.5" d="M153.703 118.355L151.722 120.918C151.973 121.007 152.302 120.987 152.668 120.828C153.445 120.492 154.075 119.677 154.075 119.008C154.075 118.693 153.931 118.471 153.703 118.355Z" fill="#5D6D89"/>
<path d="M153.909 119.081C153.909 119.671 153.354 120.389 152.669 120.686C151.984 120.982 151.429 120.745 151.429 120.156C151.429 119.566 151.984 118.848 152.669 118.551C153.354 118.255 153.909 118.492 153.909 119.081Z" fill="#A6B4C9"/>
<path d="M151.708 120.701C151.763 120.737 151.826 120.764 151.896 120.782L153.632 118.536C153.577 118.501 153.514 118.474 153.444 118.456L151.708 120.701Z" fill="#5D6D89"/>
<path d="M149.094 121.168C149.094 121.939 148.368 122.879 147.473 123.267C146.577 123.654 145.851 123.344 145.851 122.573C145.851 121.802 146.577 120.862 147.473 120.474C148.368 120.086 149.094 120.397 149.094 121.168Z" fill="#494238"/>
<path d="M159.488 116.665C159.488 117.436 158.762 118.376 157.867 118.764C156.971 119.151 156.245 118.841 156.245 118.07C156.245 117.299 156.971 116.359 157.867 115.972C158.762 115.584 159.488 115.894 159.488 116.665Z" fill="#494238"/>
<path d="M155.775 129.212C151.41 131.103 147.584 130.774 145.448 128.72C147.408 131.057 151.297 131.544 155.775 129.603C160.255 127.662 164.143 123.806 166.104 119.771C163.967 123.677 160.141 127.321 155.775 129.212Z" fill="white"/>
<path opacity="0.4" d="M144.445 126.636C144.445 120.482 150.239 112.982 157.387 109.886C158.138 109.56 158.873 109.301 159.589 109.096C159.039 108.914 158.441 108.799 157.797 108.761C157.139 108.947 156.464 109.185 155.774 109.484C149.322 112.279 144.092 119.049 144.092 124.604C144.092 125.465 144.22 126.244 144.456 126.939C144.452 126.837 144.445 126.74 144.445 126.636Z" fill="#C6AD89"/>
<path d="M152.128 127.914C150.144 128.774 148.278 129.146 146.651 129.086C148.339 129.334 150.372 129.026 152.56 128.078C157.232 126.054 161.194 121.732 162.602 117.507C160.822 121.735 156.804 125.889 152.128 127.914Z" fill="#FFFAEE"/>
<path d="M147.927 120.335C148.32 120.419 148.575 120.712 148.575 121.168C148.575 121.94 147.85 122.879 146.954 123.267C146.796 123.335 146.644 123.381 146.499 123.407C146.77 123.465 147.106 123.425 147.472 123.267C148.367 122.879 149.093 121.94 149.093 121.168C149.093 120.533 148.601 120.212 147.927 120.335Z" fill="#CEBBA1"/>
<path d="M158.3 115.836C158.681 115.926 158.928 116.217 158.928 116.665C158.928 117.436 158.202 118.376 157.306 118.763C157.156 118.828 157.01 118.872 156.872 118.899C157.147 118.964 157.492 118.926 157.867 118.763C158.762 118.376 159.488 117.436 159.488 116.665C159.488 116.024 158.985 115.702 158.3 115.836Z" fill="#CEBBA1"/>
</g>
<mask id="mask0_606_2987" style="mask-type:luminance" maskUnits="userSpaceOnUse" x="280" y="159" width="37" height="57">
<path d="M316.134 159.408H280.163V215.71H316.134V159.408Z" fill="white"/>
</mask>
<g mask="url(#mask0_606_2987)">
<path d="M316.134 174.902C316.134 166.344 308.08 159.408 298.15 159.408C288.216 159.408 280.163 166.344 280.163 174.902C280.163 177.424 280.868 179.802 282.11 181.908H282.104C282.104 181.908 282.114 181.921 282.128 181.94C282.442 182.467 282.785 182.978 283.165 183.468C284.387 185.42 286.234 188.898 286.234 192.137C286.234 196.978 293.09 202.886 293.09 202.886H298.15H303.208C303.208 202.886 310.062 196.978 310.062 192.137C310.062 188.898 311.91 185.42 313.131 183.468C313.512 182.978 313.855 182.467 314.167 181.94C314.183 181.921 314.193 181.908 314.193 181.908H314.188C315.428 179.802 316.134 177.424 316.134 174.902Z" fill="#F2A320"/>
<path d="M281.217 174.903C281.217 177.218 281.833 179.437 283.049 181.499C283.066 181.527 284.044 182.967 284.044 182.967L284.094 183.038C285.551 185.364 287.289 188.829 287.289 192.139C287.289 195.997 292.261 200.806 293.54 201.977C294.285 201.977 302.011 201.977 302.758 201.977C304.035 200.806 309.009 195.997 309.009 192.139C309.009 188.83 310.746 185.364 312.204 183.038L312.254 182.967L313.23 181.527C314.464 179.438 315.078 177.218 315.078 174.903C315.078 166.861 307.484 160.318 298.15 160.318C288.813 160.318 281.217 166.861 281.217 174.903Z" fill="url(#paint0_radial_606_2987)"/>
<path d="M305.323 185.641L304.862 186.838L304.837 186.899C304.142 188.833 303.317 191.711 303.317 194.461C303.317 197.67 300.949 201.669 300.341 202.641C299.985 202.641 296.31 202.641 295.957 202.641C295.347 201.669 292.98 197.67 292.98 194.461C292.98 191.711 292.155 188.833 291.461 186.899L291.436 186.838C291.436 186.838 290.973 185.641 290.964 185.618C290.521 184.305 290.248 182.914 290.143 181.47C290.111 181.905 290.093 182.35 290.093 182.798C290.093 184.724 290.387 186.568 290.964 188.282C290.973 188.307 291.436 189.505 291.436 189.505L291.461 189.563C292.155 191.498 292.98 194.378 292.98 197.128C292.98 200.338 295.347 204.334 295.957 205.308C296.31 205.308 299.984 205.308 300.341 205.308C300.949 204.334 303.317 200.338 303.317 197.128C303.317 194.379 304.141 191.498 304.837 189.563L304.862 189.505L305.323 188.307C305.91 186.568 306.203 184.725 306.203 182.798C306.203 182.35 306.186 181.906 306.153 181.468C306.05 182.913 305.774 184.308 305.323 185.641Z" fill="url(#paint1_linear_606_2987)"/>
<path d="M288.89 165.184C288.395 164.757 287.343 164.97 286.543 165.66C285.741 166.348 285.493 167.255 285.991 167.682C286.487 168.109 287.536 167.895 288.338 167.206C289.138 166.515 289.386 165.61 288.89 165.184Z" fill="url(#paint2_radial_606_2987)"/>
<path d="M284.539 168.934C284.238 168.674 283.602 168.803 283.114 169.221C282.63 169.641 282.479 170.19 282.781 170.451C283.083 170.709 283.719 170.579 284.204 170.161C284.687 169.742 284.839 169.193 284.539 168.934Z" fill="url(#paint3_radial_606_2987)"/>
<path d="M289.718 198.18L307.099 200.037C307.595 200.092 307.958 200.511 307.958 201.003C307.958 201.052 307.956 201.099 307.948 201.146L307.873 201.678C307.831 201.973 307.668 202.236 307.421 202.403C307.22 202.54 306.979 202.6 306.738 202.575L289.36 200.718C288.813 200.66 288.43 200.161 288.507 199.607L288.581 199.077C288.623 198.784 288.788 198.521 289.033 198.353C289.235 198.215 289.478 198.154 289.718 198.18Z" fill="#808184"/>
<path d="M289.651 201.182L307.032 203.042C307.531 203.096 307.891 203.513 307.891 204.007C307.891 204.056 307.889 204.101 307.881 204.15L307.806 204.682C307.764 204.974 307.601 205.24 307.354 205.407C307.153 205.544 306.912 205.603 306.673 205.579L289.293 203.721C288.746 203.661 288.363 203.164 288.439 202.611L288.516 202.079C288.594 201.528 289.104 201.124 289.651 201.182Z" fill="#808184"/>
<path d="M289.545 204.284L306.927 206.142C307.426 206.194 307.789 206.614 307.789 207.107C307.789 207.154 307.787 207.201 307.779 207.251L307.703 207.783C307.662 208.076 307.499 208.339 307.252 208.506C307.051 208.643 306.807 208.706 306.569 208.68L289.191 206.822C288.641 206.763 288.261 206.266 288.339 205.713L288.413 205.18C288.455 204.887 288.619 204.623 288.866 204.456C289.067 204.319 289.307 204.258 289.545 204.284Z" fill="#808184"/>
<path d="M300.997 211.212C300.997 211.948 299.718 212.545 298.149 212.545C296.578 212.545 295.299 211.948 295.299 211.212C295.299 210.478 296.578 209.881 298.149 209.881C299.718 209.881 300.997 210.478 300.997 211.212Z" fill="#808184"/>
<path d="M295.452 211.212C295.452 211.888 296.661 212.433 298.15 212.433C299.637 212.433 300.843 211.888 300.843 211.212C300.843 210.539 299.637 209.991 298.15 209.991C296.661 209.992 295.452 210.539 295.452 211.212Z" fill="#6D6E70"/>
<path d="M305.792 207.334C305.792 209.717 302.363 211.656 298.149 211.656C293.932 211.656 290.502 209.717 290.502 207.334C290.502 204.951 293.931 203.011 298.149 203.011C302.363 203.011 305.792 204.951 305.792 207.334Z" fill="#808184"/>
<path d="M305.865 197.769C306.417 197.769 306.867 198.161 306.867 198.641V208.282C306.867 208.761 306.418 209.153 305.865 209.153H290.432C289.88 209.153 289.428 208.762 289.428 208.282V198.641C289.428 198.16 289.879 197.769 290.432 197.769H305.865Z" fill="#808184"/>
<path d="M289.842 197.769H306.867V201.249H289.428V197.769H289.842Z" fill="#808184"/>
<path d="M290.916 207.334C290.916 209.522 294.153 211.299 298.149 211.299C302.142 211.299 305.38 209.522 305.38 207.334C305.38 205.145 302.142 203.37 298.149 203.37C294.153 203.371 290.916 205.145 290.916 207.334Z" fill="url(#paint4_radial_606_2987)"/>
<path d="M289.842 208.282C289.842 208.563 290.108 208.795 290.431 208.795H305.865C306.188 208.795 306.454 208.563 306.454 208.282V198.641C306.454 198.359 306.188 198.128 305.865 198.128H290.432C290.108 198.128 289.843 198.359 289.843 198.641L289.842 208.282Z" fill="url(#paint5_linear_606_2987)"/>
<path d="M306.454 198.128H289.842V200.891H306.454V198.128Z" fill="url(#paint6_linear_606_2987)"/>
<path d="M288.992 199.348C289.042 198.994 289.344 198.73 289.669 198.764L307.046 200.621C307.368 200.655 307.591 200.974 307.541 201.33L307.464 201.864C307.414 202.22 307.111 202.482 306.79 202.447L289.41 200.59C289.089 200.555 288.866 200.236 288.917 199.88L288.992 199.348Z" fill="#898B8D"/>
<path d="M288.925 202.351C288.976 201.997 289.28 201.733 289.602 201.767L306.983 203.626C307.302 203.66 307.524 203.978 307.471 204.335L307.4 204.866C307.348 205.222 307.044 205.486 306.723 205.451L289.343 203.593C289.022 203.557 288.8 203.239 288.85 202.885L288.925 202.351Z" fill="#898B8D"/>
<path d="M288.823 205.451C288.873 205.096 289.176 204.833 289.496 204.866L306.877 206.726C307.198 206.76 307.418 207.079 307.369 207.435L307.295 207.969C307.245 208.324 306.941 208.584 306.619 208.551L289.24 206.693C288.916 206.66 288.696 206.34 288.746 205.984L288.823 205.451Z" fill="#898B8D"/>
<path d="M288.715 199.119C288.763 198.764 289.068 198.501 289.389 198.535L306.77 200.392C307.092 200.427 307.312 200.748 307.262 201.103L307.187 201.635C307.137 201.99 306.831 202.253 306.511 202.219L289.13 200.362C288.809 200.326 288.589 200.008 288.639 199.652L288.715 199.119Z" fill="url(#paint7_linear_606_2987)"/>
<path d="M288.648 202.122C288.699 201.767 289.001 201.503 289.322 201.538L306.703 203.397C307.025 203.43 307.248 203.75 307.195 204.106L307.122 204.638C307.071 204.994 306.767 205.256 306.447 205.221L289.067 203.364C288.746 203.329 288.522 203.01 288.574 202.654L288.648 202.122Z" fill="url(#paint8_linear_606_2987)"/>
<path d="M288.544 205.223C288.594 204.866 288.9 204.605 289.22 204.639L306.598 206.497C306.919 206.531 307.142 206.85 307.091 207.205L307.018 207.739C306.966 208.094 306.663 208.357 306.343 208.324L288.961 206.465C288.64 206.43 288.42 206.11 288.47 205.754L288.544 205.223Z" fill="url(#paint9_linear_606_2987)"/>
<path d="M300.447 178.486C300.447 178.486 300.017 178.857 299.588 179.225C299.588 179.077 299.588 178.832 299.588 178.832L298.507 178.637C298.48 178.69 297.841 179.914 296.424 179.914C296.325 179.914 296.268 179.905 296.215 179.898C296.296 179.72 296.551 179.412 296.824 179.174L296.024 178.486C296.024 178.486 295.2 179.199 294.733 179.6C294.482 179.382 293.822 178.816 293.822 178.816C293.822 178.816 292.807 179.69 292.393 180.047C292.142 179.831 290.918 178.778 290.918 178.778C290.918 178.778 290.918 180.48 290.918 180.877C290.523 180.928 289.933 181.006 289.933 181.006L288.571 181.786C288.406 181.878 288.317 182.033 288.317 182.192C288.317 182.283 288.349 182.376 288.412 182.459C288.586 182.682 288.936 182.744 289.195 182.594C289.195 182.594 290.174 182.033 290.35 181.932C290.552 181.907 292.047 181.712 292.047 181.712C292.047 181.712 292.047 181.162 292.047 181.123C292.127 181.192 292.394 181.421 292.394 181.421C292.394 181.421 293.409 180.547 293.823 180.19C294.076 180.406 294.733 180.973 294.733 180.973C294.733 180.973 295.245 180.535 295.262 180.518C295.447 180.712 295.79 180.884 296.424 180.884C297.305 180.884 297.969 180.587 298.461 180.233C298.461 180.264 298.461 181.57 298.461 181.57C298.461 181.57 299.856 180.371 300.28 180.003C300.28 180.414 300.28 182.019 300.28 182.019C300.28 182.019 301.659 180.834 302.034 180.511C302.237 180.803 302.815 181.632 302.815 181.632C302.815 181.632 303.392 181.132 303.402 181.124C303.402 181.203 303.402 181.464 303.402 181.464C303.402 181.464 305.046 181.764 305.604 181.865C305.619 182.254 305.658 183.285 305.658 183.285H307.347C307.658 183.285 307.912 183.069 307.912 182.798C307.912 182.53 307.658 182.313 307.347 182.313C307.347 182.313 307.049 182.313 306.75 182.313C306.735 181.921 306.703 181.072 306.703 181.072C306.703 181.072 305.095 180.781 304.529 180.677C304.529 180.347 304.529 178.779 304.529 178.779C304.529 178.779 303.301 179.836 303.038 180.063C302.833 179.771 302.256 178.943 302.256 178.943C302.256 178.943 301.538 179.561 301.409 179.674C301.409 179.265 301.409 177.658 301.409 177.658L300.447 178.486Z" fill="#FFFACF"/>
<path d="M309.45 169.378C307.98 171.568 304.656 171.489 301.528 169.934C298.403 168.379 296.66 165.937 298.128 163.746C299.598 161.552 303.002 161.516 306.131 163.069C309.256 164.624 310.92 167.185 309.45 169.378Z" fill="url(#paint10_radial_606_2987)"/>
</g>
<g clip-path="url(#clip4_606_2987)">
<path d="M44.9854 69.6752V70.7232H44.4214V67.8992H45.4494C45.7827 67.8992 46.0334 67.9792 46.2014 68.1392C46.3721 68.2992 46.4574 68.5165 46.4574 68.7912C46.4574 69.0605 46.3694 69.2752 46.1934 69.4352C46.0201 69.5952 45.7721 69.6752 45.4494 69.6752H44.9854ZM45.3894 69.2232C45.7201 69.2232 45.8854 69.0792 45.8854 68.7912C45.8854 68.6498 45.8467 68.5418 45.7694 68.4672C45.6921 68.3925 45.5654 68.3552 45.3894 68.3552H44.9854V69.2232H45.3894ZM47.6917 68.4792C47.8784 68.4792 48.0384 68.5232 48.1717 68.6112C48.3051 68.6992 48.3997 68.8178 48.4557 68.9672V68.5072H49.0157V70.7232H48.4557V70.2592C48.3997 70.4085 48.3051 70.5285 48.1717 70.6192C48.0384 70.7072 47.8784 70.7512 47.6917 70.7512C47.5051 70.7512 47.3371 70.7058 47.1877 70.6152C47.0384 70.5245 46.9211 70.3938 46.8357 70.2232C46.7531 70.0498 46.7117 69.8472 46.7117 69.6152C46.7117 69.3832 46.7531 69.1818 46.8357 69.0112C46.9211 68.8378 47.0384 68.7058 47.1877 68.6152C47.3371 68.5245 47.5051 68.4792 47.6917 68.4792ZM47.8677 68.9712C47.6917 68.9712 47.5504 69.0285 47.4437 69.1432C47.3371 69.2578 47.2837 69.4152 47.2837 69.6152C47.2837 69.8152 47.3371 69.9725 47.4437 70.0872C47.5504 70.1992 47.6917 70.2552 47.8677 70.2552C48.0384 70.2552 48.1784 70.1978 48.2877 70.0832C48.3997 69.9658 48.4557 69.8098 48.4557 69.6152C48.4557 69.4178 48.3997 69.2618 48.2877 69.1472C48.1784 69.0298 48.0384 68.9712 47.8677 68.9712ZM49.9069 68.5072L50.5109 70.0112L51.0709 68.5072H51.6909L50.3349 71.7792H49.7109L50.2109 70.6592L49.2789 68.5072H49.9069Z" fill="white"/>
</g>
</g>
<defs>
<filter id="filter0_d_606_2987" x="172.937" y="131.853" width="88.6411" height="71.0123" filterUnits="userSpaceOnUse" color-interpolation-filters="sRGB">
<feFlood flood-opacity="0" result="BackgroundImageFix"/>
<feColorMatrix in="SourceAlpha" type="matrix" values="0 0 0 0 0 0 0 0 0 0 0 0 0 0 0 0 0 0 127 0" result="hardAlpha"/>
<feOffset dy="5"/>
<feGaussianBlur stdDeviation="15"/>
<feColorMatrix type="matrix" values="0 0 0 0 0 0 0 0 0 0 0 0 0 0 0 0 0 0 0.05 0"/>
<feBlend mode="normal" in2="BackgroundImageFix" result="effect1_dropShadow_606_2987"/>
<feBlend mode="normal" in="SourceGraphic" in2="effect1_dropShadow_606_2987" result="shape"/>
</filter>
<radialGradient id="paint0_radial_606_2987" cx="0" cy="0" r="1" gradientUnits="userSpaceOnUse" gradientTransform="translate(298.883 180.402) scale(24.5006 21.1053)">
<stop stop-color="#F4E589"/>
<stop offset="0.1637" stop-color="#F5E181"/>
<stop offset="0.4153" stop-color="#F6D76C"/>
<stop offset="0.7216" stop-color="#F9C749"/>
<stop offset="1" stop-color="#FCB623"/>
</radialGradient>
<linearGradient id="paint1_linear_606_2987" x1="298.148" y1="181.733" x2="298.148" y2="198.538" gradientUnits="userSpaceOnUse">
<stop stop-color="#FFF696"/>
<stop offset="0.0338" stop-color="#FDF290"/>
<stop offset="0.346" stop-color="#EDCF61"/>
<stop offset="0.6223" stop-color="#E1B53F"/>
<stop offset="0.8497" stop-color="#DAA62B"/>
<stop offset="1" stop-color="#D7A023"/>
</linearGradient>
<radialGradient id="paint2_radial_606_2987" cx="0" cy="0" r="1" gradientUnits="userSpaceOnUse" gradientTransform="translate(287.981 166.867) scale(1.66056 1.43044)">
<stop stop-color="#F4E589"/>
<stop offset="0.2013" stop-color="#F5E791"/>
<stop offset="0.5107" stop-color="#F8EBA6"/>
<stop offset="0.8878" stop-color="#FDF3C9"/>
<stop offset="1" stop-color="#FFF5D5"/>
</radialGradient>
<radialGradient id="paint3_radial_606_2987" cx="0" cy="0" r="1" gradientUnits="userSpaceOnUse" gradientTransform="translate(284.2 170.127) scale(1.00629 0.867812)">
<stop stop-color="#F4E589"/>
<stop offset="0.2013" stop-color="#F5E791"/>
<stop offset="0.5107" stop-color="#F8EBA6"/>
<stop offset="0.8878" stop-color="#FDF3C9"/>
<stop offset="1" stop-color="#FFF5D5"/>
</radialGradient>
<radialGradient id="paint4_radial_606_2987" cx="0" cy="0" r="1" gradientUnits="userSpaceOnUse" gradientTransform="translate(298.072 207.728) rotate(180) scale(7.23376 3.96537)">
<stop stop-color="white"/>
<stop offset="0.9718" stop-color="#838587"/>
</radialGradient>
<linearGradient id="paint5_linear_606_2987" x1="289.165" y1="203.461" x2="305.777" y2="203.461" gradientUnits="userSpaceOnUse">
<stop offset="0.0057" stop-color="#48484A"/>
<stop offset="0.2768" stop-color="white"/>
<stop offset="0.3245" stop-color="#EFEFF0"/>
<stop offset="0.4864" stop-color="#BFBFC1"/>
<stop offset="0.64" stop-color="#99999B"/>
<stop offset="0.7812" stop-color="#7D7E81"/>
<stop offset="0.9056" stop-color="#6D6E71"/>
<stop offset="1" stop-color="#67686B"/>
</linearGradient>
<linearGradient id="paint6_linear_606_2987" x1="289.165" y1="199.509" x2="305.777" y2="199.509" gradientUnits="userSpaceOnUse">
<stop offset="0.0057" stop-color="#48484A"/>
<stop offset="0.2768" stop-color="white"/>
<stop offset="0.3245" stop-color="#EFEFF0"/>
<stop offset="0.4864" stop-color="#BFBFC1"/>
<stop offset="0.64" stop-color="#99999B"/>
<stop offset="0.7812" stop-color="#7D7E81"/>
<stop offset="0.9056" stop-color="#6D6E71"/>
<stop offset="1" stop-color="#67686B"/>
</linearGradient>
<linearGradient id="paint7_linear_606_2987" x1="307.851" y1="200.377" x2="288.298" y2="200.377" gradientUnits="userSpaceOnUse">
<stop offset="0.096" stop-color="white"/>
<stop offset="0.1808" stop-color="#A6A8AB"/>
<stop offset="0.3107" stop-color="white"/>
<stop offset="0.3729" stop-color="#9C9EA1"/>
<stop offset="0.6949" stop-color="#DBDCDD"/>
<stop offset="0.9831" stop-color="#9C9EA1"/>
</linearGradient>
<linearGradient id="paint8_linear_606_2987" x1="307.786" y1="203.38" x2="288.234" y2="203.38" gradientUnits="userSpaceOnUse">
<stop offset="0.096" stop-color="white"/>
<stop offset="0.1808" stop-color="#A6A8AB"/>
<stop offset="0.3107" stop-color="white"/>
<stop offset="0.3729" stop-color="#9C9EA1"/>
<stop offset="0.6949" stop-color="#DBDCDD"/>
<stop offset="0.9831" stop-color="#9C9EA1"/>
</linearGradient>
<linearGradient id="paint9_linear_606_2987" x1="307.683" y1="206.482" x2="288.13" y2="206.482" gradientUnits="userSpaceOnUse">
<stop offset="0.096" stop-color="white"/>
<stop offset="0.1808" stop-color="#A6A8AB"/>
<stop offset="0.3107" stop-color="white"/>
<stop offset="0.3729" stop-color="#9C9EA1"/>
<stop offset="0.6949" stop-color="#DBDCDD"/>
<stop offset="0.9831" stop-color="#9C9EA1"/>
</linearGradient>
<radialGradient id="paint10_radial_606_2987" cx="0" cy="0" r="1" gradientUnits="userSpaceOnUse" gradientTransform="translate(299.743 168.89) scale(9.97932 8.59637)">
<stop stop-color="#F4E589"/>
<stop offset="0.2013" stop-color="#F5E791"/>
<stop offset="0.5107" stop-color="#F8EBA6"/>
<stop offset="0.8878" stop-color="#FDF3C9"/>
<stop offset="1" stop-color="#FFF5D5"/>
</radialGradient>
<clipPath id="clip0_606_2987">
<rect width="407" height="257" fill="white"/>
</clipPath>
<clipPath id="clip1_606_2987">
<rect width="83" height="187" fill="white" transform="translate(183 35)"/>
</clipPath>
<clipPath id="clip2_606_2987">
<rect width="52.7593" height="50.9151" fill="white" transform="translate(130 154.884)"/>
</clipPath>
<clipPath id="clip3_606_2987">
<rect width="46" height="55" fill="white" transform="translate(131.002 91)"/>
</clipPath>
<clipPath id="clip4_606_2987">
<rect width="8" height="5" fill="white" transform="translate(44 67)"/>
</clipPath>
</defs>
</svg>
